<?xml version="1.0" encoding="iso-8859-1"?>
<!-- Generator: Adobe Illustrator 21.0.0, SVG Export Plug-In . SVG Version: 6.00 Build 0)  -->
<svg xmlns="http://www.w3.org/2000/svg" xmlns:xlink="http://www.w3.org/1999/xlink" version="1.1" id="Capa_1" x="0px" y="0px" viewBox="0 0 512 512" style="enable-background:new 0 0 512 512;" xml:space="preserve" width="512" height="512">
<g>
	<path d="M413.396,151.289c-5.89-19.521-19.365-62.5-26.933-73.221C359.92,40.468,298.598,0,226.684,0   c-52.487,0-102.17,21.14-139.897,59.525c-37.328,37.979-58.333,87.994-59.146,140.829c-0.505,32.794,6.563,64.212,21.01,93.381   c12.642,25.525,30.821,48.445,52.833,66.687V512h219.285v-84.837h35.253c43.456,0,78.81-35.354,78.81-78.81v-42.111l49.554-20.8   L413.396,151.289z M404.831,286.298v62.055c0,26.914-21.896,48.81-48.81,48.81h-65.253V482H131.483V345.81l-5.864-4.503   c-21.04-16.156-38.359-37.21-50.084-60.886c-12.307-24.848-18.328-51.631-17.897-79.604c0.694-45.095,18.645-87.805,50.546-120.262   C140.224,47.954,182.308,30,226.684,30c27.809,0,56.188,7.242,82.069,20.944c22.163,11.733,41.554,27.925,53.171,44.38   c3.775,5.714,14.963,38.71,23.164,66.004l0.422,1.404l57.014,107.744L404.831,286.298z"/>
	<path d="M223.716,87.698c-62.385,0-113.139,50.754-113.139,113.139c0,62.385,50.754,113.139,113.139,113.139   c62.385,0,113.139-50.754,113.139-113.139C336.855,138.452,286.102,87.698,223.716,87.698z M223.716,283.976   c-45.843,0-83.139-37.296-83.139-83.139c0-45.843,37.296-83.139,83.139-83.139c45.843,0,83.139,37.296,83.139,83.139   C306.855,246.68,269.56,283.976,223.716,283.976z"/>
	<path d="M246.535,148.823c-8.414,0-16.388,2.854-22.819,8.105c-6.43-5.251-14.405-8.105-22.818-8.105   c-9.658,0-18.737,3.761-25.566,10.59c-6.829,6.829-10.59,15.908-10.59,25.565c0,9.658,3.761,18.737,10.552,25.528l48.268,48.616   l10.645-10.683l37.895-37.895c14.097-14.097,14.097-37.035,0-51.131C265.272,152.584,256.193,148.823,246.535,148.823z    M250.888,189.332L223.619,216.6l-27.074-27.269c-2.4-2.4-2.4-6.305,0-8.706c1.568-1.569,3.4-1.803,4.353-1.803   s2.784,0.234,4.353,1.803l18.465,18.465l18.466-18.465v0c1.569-1.569,3.401-1.803,4.353-1.803s2.784,0.234,4.353,1.803   C253.288,183.026,253.288,186.931,250.888,189.332z"/>
</g>















</svg>
