<?xml version="1.0" encoding="iso-8859-1"?>
<!-- Generator: Adobe Illustrator 21.0.0, SVG Export Plug-In . SVG Version: 6.00 Build 0)  -->
<svg xmlns="http://www.w3.org/2000/svg" xmlns:xlink="http://www.w3.org/1999/xlink" version="1.1" id="Capa_1" x="0px" y="0px" viewBox="0 0 512 512" style="enable-background:new 0 0 512 512;" xml:space="preserve" width="512" height="512">
<g>
	<path d="M512,129.138c0-51.454-41.86-93.314-93.314-93.314H254.565c-48.336,0-88.203,36.942-92.857,84.075H25.689v271.755H0v15.023   c0,38.321,31.176,69.498,69.498,69.498h306.698c38.321,0,69.498-31.177,69.498-69.498v-15.023h-25.089V222.428   C471.176,221.402,512,179.95,512,129.138z M254.565,65.871h164.121c34.885,0,63.267,28.382,63.267,63.267   c0,34.885-28.382,63.267-63.267,63.267h-74.464l-44.756,36.261v-36.261h-44.901c-34.885,0-63.267-28.382-63.267-63.267   C191.298,94.253,219.68,65.871,254.565,65.871z M376.196,446.129H69.498c-16.438,0-30.558-10.104-36.479-24.428h379.655   C406.754,436.025,392.634,446.129,376.196,446.129z M55.736,391.654V149.946h107.856c9.481,41.471,46.669,72.506,90.973,72.506   h14.854v69.228l85.446-69.228h35.692v169.202H55.736z"/>
	<path d="M281.888,145.437c7.858,0,15.387-6.91,15.023-15.023c-0.365-8.14-6.601-15.023-15.023-15.023   c-7.858,0-15.387,6.91-15.023,15.023C267.229,138.554,273.466,145.437,281.888,145.437z"/>
	<path d="M387.163,145.437c7.858,0,15.387-6.91,15.023-15.023c-0.365-8.14-6.601-15.023-15.023-15.023   c-7.858,0-15.387,6.91-15.023,15.023C372.504,138.554,378.741,145.437,387.163,145.437z"/>
	<path d="M335.734,145.437c7.858,0,15.387-6.91,15.023-15.023c-0.365-8.14-6.601-15.023-15.023-15.023   c-7.858,0-15.387,6.91-15.023,15.023C321.075,138.554,327.312,145.437,335.734,145.437z"/>
</g>















</svg>
