<?xml version="1.0" encoding="iso-8859-1"?>
<!-- Generator: Adobe Illustrator 21.0.0, SVG Export Plug-In . SVG Version: 6.00 Build 0)  -->
<svg xmlns="http://www.w3.org/2000/svg" xmlns:xlink="http://www.w3.org/1999/xlink" version="1.1" id="Capa_1" x="0px" y="0px" viewBox="0 0 512 512" style="enable-background:new 0 0 512 512;" xml:space="preserve" width="512" height="512">
<g>
	<path style="fill:none;" d="M253.917,204.021c47.978,0,87.01-39.033,87.01-87.01S301.895,30,253.917,30s-87.01,39.033-87.01,87.01   S205.94,204.021,253.917,204.021z M238.255,95.462L256,66.261l17.745,29.201l33.254,7.853l-22.287,25.9l2.808,34.054L256,150.075   l-31.52,13.193l2.808-34.054l-22.287-25.9L238.255,95.462z"/>
	<path style="fill:none;" d="M286.462,351.886V229.411c-10.336,2.998-21.255,4.61-32.545,4.61c-9.785,0-19.29-1.214-28.38-3.488   v121.353L256,333.125L286.462,351.886z"/>
	<path style="fill:none;" d="M370.928,117.01c0,41.534-21.755,78.078-54.465,98.848v19.629h80.721v30h-80.721v35.894h80.721v30   h-80.721v30.003h80.721v30h-80.721v14.211L256,368.358l-60.462,37.238v-14.211h-78.188v-30h78.188v-30.003h-78.188v-30h78.188   v-35.894h-78.188v-30h78.188v-17.101c-35.017-20.244-58.63-58.104-58.63-101.377c0-19.006,4.559-36.966,12.634-52.85H74.657V482   h362.687V64.16h-79.05C366.369,80.044,370.928,98.004,370.928,117.01z M397.183,451.389H117.349v-30h279.834V451.389z"/>
	<polygon points="224.48,163.269 256,150.075 287.52,163.269 284.712,129.215 306.999,103.314 273.745,95.462 256,66.261    238.255,95.462 205.001,103.314 227.288,129.215  "/>
	<path d="M336.464,34.16C315.288,13.062,286.1,0,253.917,0s-61.371,13.062-82.546,34.16H44.657V512h422.687V34.16H336.464z    M253.917,30c47.978,0,87.01,39.033,87.01,87.01s-39.033,87.01-87.01,87.01s-87.01-39.033-87.01-87.01S205.94,30,253.917,30z    M225.538,230.533c9.09,2.273,18.595,3.488,28.38,3.488c11.29,0,22.209-1.612,32.545-4.61v122.476L256,333.125l-30.462,18.762   V230.533z M437.343,482H74.657V64.16h74.885c-8.076,15.884-12.634,33.844-12.634,52.85c0,43.273,23.614,81.133,58.63,101.377   v17.101h-78.188v30h78.188v35.894h-78.188v30h78.188v30.003h-78.188v30h78.188v14.211L256,368.358l60.462,37.238v-14.211h80.721   v-30h-80.721v-30.003h80.721v-30h-80.721v-35.894h80.721v-30h-80.721v-19.629c32.71-20.771,54.465-57.315,54.465-98.848   c0-19.006-4.559-36.966-12.634-52.85h79.05V482z"/>
	<rect x="117.349" y="421.389" width="279.834" height="30"/>
</g>















</svg>
