<?xml version="1.0" encoding="iso-8859-1"?>
<!-- Generator: Adobe Illustrator 21.0.0, SVG Export Plug-In . SVG Version: 6.00 Build 0)  -->
<svg xmlns="http://www.w3.org/2000/svg" xmlns:xlink="http://www.w3.org/1999/xlink" version="1.1" id="Capa_1" x="0px" y="0px" viewBox="0 0 512 512" style="enable-background:new 0 0 512 512;" xml:space="preserve" width="512" height="512">
<g>
	<path d="M256,0L57.783,89.694v162.501c0,33.261,10.336,67.576,30.721,101.99c15.889,26.825,37.927,53.815,65.502,80.22   c46.506,44.533,92.39,71.905,94.32,73.049L256,512l7.675-4.545c1.93-1.144,47.814-28.516,94.319-73.049   c27.575-26.406,49.613-53.396,65.502-80.22c20.385-34.414,30.721-68.729,30.721-101.99V89.694L256,0z M424.098,252.195   c0,108.558-134.243,202.541-168.105,224.513C222.117,454.763,87.902,360.925,87.902,252.195v-143.07L256,33.059l168.098,76.065   V252.195z"/>
	<path d="M107.981,122.078v130.117c0,56.193,43.15,109.658,79.349,144.614c22.303,21.537,44.904,38.886,59.936,49.647l8.766,6.275   l8.766-6.275c14.51-10.387,36.435-27.199,58.477-48.307c36.835-35.273,80.744-89.227,80.744-145.955V122.078L256,55.099   L107.981,122.078z M373.9,252.195c0,25.444-12.397,67.647-71.455,124.201c-16.714,16.005-33.392,29.413-46.414,39.155   c-13.496-10.087-30.755-23.97-47.778-40.408c-57.981-55.991-70.152-97.764-70.152-122.947V141.508L256,88.158l117.9,53.35V252.195z   "/>
	<path d="M162.411,235.433c0,51.605,41.984,93.59,93.59,93.59s93.59-41.984,93.59-93.59c0-51.606-41.984-93.59-93.59-93.59   S162.411,183.827,162.411,235.433z M319.471,235.433c0,34.998-28.473,63.471-63.471,63.471s-63.471-28.473-63.471-63.471   c0-34.998,28.473-63.471,63.471-63.471S319.471,200.435,319.471,235.433z"/>
	<polygon points="231.215,222.678 209.917,243.975 245.593,279.651 302.083,223.161 280.786,201.864 245.593,237.056  "/>
</g>















</svg>
