<?xml version="1.0" encoding="iso-8859-1"?>
<!-- Generator: Adobe Illustrator 21.0.0, SVG Export Plug-In . SVG Version: 6.00 Build 0)  -->
<svg xmlns="http://www.w3.org/2000/svg" xmlns:xlink="http://www.w3.org/1999/xlink" version="1.1" id="Capa_1" x="0px" y="0px" viewBox="0 0 512 512" style="enable-background:new 0 0 512 512;" xml:space="preserve" width="512" height="512">
<g>
	<rect x="52.345" y="91.74" width="30.002" height="30"/>
	<rect x="102.348" y="91.74" width="30.002" height="30"/>
	<rect x="152.352" y="91.74" width="30.002" height="30"/>
	<path d="M0,37.089v437.822h512V37.089H0z M482,67.089v80.007H30V67.089H482z M30,444.911V177.096h452v267.815H30z"/>
	<rect x="237.981" y="91.74" width="216.02" height="30"/>
	<polygon points="137.67,280.969 119.926,251.77 102.18,280.969 68.924,288.823 91.212,314.722 88.403,348.775 119.925,335.582    151.445,348.776 148.637,314.722 170.925,288.823  "/>
	<polygon points="273.745,280.969 256,251.768 238.255,280.969 205.002,288.822 227.288,314.722 224.481,348.775 256,335.583    287.519,348.775 284.712,314.722 306.998,288.822  "/>
	<polygon points="410.821,280.969 393.077,251.77 375.331,280.969 342.075,288.823 364.364,314.722 361.558,348.775    393.076,335.583 424.597,348.776 421.788,314.722 444.076,288.823  "/>
</g>















</svg>
