<?xml version="1.0" encoding="iso-8859-1"?>
<!-- Generator: Adobe Illustrator 21.0.0, SVG Export Plug-In . SVG Version: 6.00 Build 0)  -->
<svg xmlns="http://www.w3.org/2000/svg" xmlns:xlink="http://www.w3.org/1999/xlink" version="1.1" id="Capa_1" x="0px" y="0px" viewBox="0 0 512 512" style="enable-background:new 0 0 512 512;" xml:space="preserve" width="512" height="512">
<g>
	<path d="M444.544,355.287H512V157.403h-67.565c-18.709-28.982-43.83-53.303-72.708-71.086h80.241l15.498,15.498l30.501-30.498   l-30.501-30.5l-15.498,15.499H305.428V19.001h-98.855v37.315H68.547L53.049,40.817l-30.501,30.5l30.501,30.498l15.498-15.498   h70.703c-28.723,17.651-53.33,41.829-71.793,71.086H0v197.884h67.456c18.498,29.319,43.136,53.533,71.889,71.196H68.547   l-15.498-15.499l-30.501,30.5l30.501,30.498l15.498-15.498h138.026v36.516h98.855v-36.516h146.541l15.498,15.498l30.501-30.498   l-30.501-30.5l-15.498,15.499h-79.393C401.373,408.824,426.041,384.608,444.544,355.287z M236.572,49.001h38.855v38.856h-38.855   V49.001z M206.572,89.823v28.034h98.855V89.886c39.684,10.71,75.888,34.718,102.109,67.517H104.07   C129.974,124.248,165.843,100.547,206.572,89.823z M30,187.403h452v137.884H30V187.403z M275.428,462.999h-38.855v-38.856h38.855   V462.999z M305.428,422.867v-28.724h-98.855v28.784c-40.719-10.721-76.588-34.437-102.511-67.64h303.87   C382.025,388.447,346.158,412.143,305.428,422.867z"/>
	<polygon points="106.969,259.925 94.197,228.646 74.771,228.646 97.41,282.18 115.152,282.18 137.789,228.646 120.047,228.646  "/>
	<polygon points="161.119,261.531 183.758,261.531 183.758,248.53 161.119,248.53 161.119,242.259 186.893,242.259 186.893,228.646    143.377,228.646 143.377,282.18 187.887,282.18 187.887,268.567 161.119,268.567  "/>
	<path d="M227.277,242.03c4.818,0,8.566,2.294,11.701,6.271l11.395-10.171c-5.277-6.883-13.535-10.707-24.014-10.707   c-17.207,0-29.826,11.548-29.826,27.991c0,16.443,12.619,27.991,29.826,27.991c10.479,0,18.736-3.824,24.014-10.707l-11.395-10.171   c-3.135,3.977-6.883,6.271-11.701,6.271c-7.494,0-12.543-5.201-12.543-13.384S219.783,242.03,227.277,242.03z"/>
	<polygon points="254.967,242.642 270.645,242.642 270.645,282.18 288.693,282.18 288.693,242.642 304.371,242.642 304.371,228.646    254.967,228.646  "/>
	<path d="M340.168,227.422c-17.438,0-30.209,11.778-30.209,27.991c0,16.213,12.771,27.991,30.209,27.991   s30.209-11.777,30.209-27.991C370.377,239.2,357.605,227.422,340.168,227.422z M340.168,268.797   c-6.654,0-12.008-5.048-12.008-13.384s5.354-13.383,12.008-13.383s12.008,5.047,12.008,13.383S346.822,268.797,340.168,268.797z"/>
	<path d="M430.951,248.836c0-12.39-9.482-20.19-24.396-20.19h-25.771v53.534h18.049v-13.46h4.895l9.1,13.46h19.271l-11.24-16.519   C427.281,262.373,430.951,256.561,430.951,248.836z M405.408,255.107h-6.576v-12.542h6.576c4.971,0,7.342,2.371,7.342,6.271   C412.75,252.736,410.379,255.107,405.408,255.107z"/>
</g>















</svg>
