<?xml version="1.0" encoding="iso-8859-1"?>
<!-- Generator: Adobe Illustrator 21.0.0, SVG Export Plug-In . SVG Version: 6.00 Build 0)  -->
<svg xmlns="http://www.w3.org/2000/svg" xmlns:xlink="http://www.w3.org/1999/xlink" version="1.1" id="Capa_1" x="0px" y="0px" viewBox="0 0 512 512" style="enable-background:new 0 0 512 512;" xml:space="preserve" width="512" height="512">
<g>
	<path d="M413.396,151.289c-5.89-19.521-19.365-62.5-26.933-73.221C359.919,40.468,298.597,0,226.684,0   c-52.487,0-102.17,21.14-139.897,59.525c-37.328,37.979-58.333,87.993-59.146,140.829c-0.505,32.794,6.563,64.212,21.01,93.381   c12.642,25.525,30.821,48.445,52.833,66.687V512h219.284v-84.837h35.253c43.456,0,78.81-35.354,78.81-78.81v-42.111l49.554-20.8   L413.396,151.289z M404.831,286.298v62.055c0,26.914-21.896,48.81-48.81,48.81h-65.253V482H131.483V345.81l-5.864-4.503   c-21.04-16.156-38.359-37.21-50.084-60.886c-12.307-24.848-18.328-51.631-17.897-79.604c0.694-45.095,18.645-87.805,50.546-120.262   C140.223,47.954,182.308,30,226.684,30c27.809,0,56.188,7.242,82.069,20.944c22.163,11.733,41.554,27.925,53.171,44.38   c3.775,5.714,14.963,38.71,23.165,66.004l0.422,1.404l57.014,107.744L404.831,286.298z"/>
	<path d="M226.546,75.368c-69.819,0-126.622,56.802-126.622,126.622c0,69.819,56.802,126.622,126.622,126.622   c69.82,0,126.622-56.802,126.622-126.622C353.168,132.17,296.366,75.368,226.546,75.368z M322.002,186.99h-43.64   c-1.447-25.441-6.655-52.916-17.163-75.191C292.911,124.025,316.605,152.512,322.002,186.99z M204.761,186.99   c1.951-31.682,10.004-59.297,21.786-75.28c11.782,15.983,19.835,43.598,21.786,75.28H204.761z M248.333,216.99   c-1.951,31.682-10.004,59.297-21.786,75.28c-11.782-15.983-19.835-43.598-21.786-75.28H248.333z M191.895,111.798   c-10.508,22.275-15.716,49.751-17.163,75.192H131.09C136.487,152.511,160.182,124.023,191.895,111.798z M131.09,216.99h43.641   c1.447,25.441,6.655,52.916,17.163,75.192C160.182,279.957,136.487,251.469,131.09,216.99z M261.199,292.181   c10.508-22.275,15.716-49.75,17.163-75.191h43.64C316.605,251.468,292.911,279.955,261.199,292.181z"/>
</g>















</svg>
