<?xml version="1.0" encoding="iso-8859-1"?>
<!-- Generator: Adobe Illustrator 21.0.0, SVG Export Plug-In . SVG Version: 6.00 Build 0)  -->
<svg xmlns="http://www.w3.org/2000/svg" xmlns:xlink="http://www.w3.org/1999/xlink" version="1.1" id="Capa_1" x="0px" y="0px" viewBox="0 0 512 512" style="enable-background:new 0 0 512 512;" xml:space="preserve" width="512" height="512">
<path d="M376.828,256.241c-3.246,0-6.398,0.406-9.414,1.16c-2.806-18.668-18.951-33.029-38.389-33.029  c-4.815,0-9.425,0.888-13.683,2.497l-4.754-57.673l59.901-69.61L281.112,78.48L233.419,0l-47.693,78.48L96.349,99.587l59.901,69.61  l-7.545,91.525l45.891-19.209v56.355l-1.443-1.404c-6.394-6.223-14.829-9.701-23.748-9.796c-11.15-0.125-21.752,5.198-28.324,14.224  c-6.571,9.027-8.38,20.736-4.837,31.324l13.59,40.62c7.317,21.87,19.021,41.493,34.787,58.323l30.688,32.763V512h159.072v-46.572  l41.269-72.898v-97.466C415.651,273.657,398.235,256.241,376.828,256.241z M182.481,214.233l4.537-55.033L151,117.344l53.742-12.691  l28.677-47.189l28.677,47.189l53.742,12.691L279.819,159.2l4.068,49.34c-0.882-0.06-1.768-0.102-2.665-0.102  c-3.092,0-6.096,0.374-8.98,1.06v-52.492c0-21.407-17.415-38.823-38.823-38.823s-38.823,17.416-38.823,38.823v52.156  L182.481,214.233z M385.809,384.669l-41.269,72.898v24.591h-99.387v-30.028l-38.751-41.37c-12.81-13.676-22.32-29.62-28.266-47.39  l-13.59-40.62c-0.675-2.015,0.125-3.553,0.662-4.29c0.532-0.73,1.733-1.948,3.823-1.948c0.019,0,0.038,0,0.058,0  c1.221,0.013,2.376,0.49,3.252,1.342l22.256,21.659v17.846h29.843V157.006c0-4.951,4.029-8.98,8.98-8.98  c4.951,0,8.98,4.029,8.98,8.98v177.077h29.843v-86.822c0-4.951,4.029-8.98,8.98-8.98c4.951,0,8.98,4.029,8.98,8.98v80.591h29.843  v-64.656c0-4.951,4.029-8.98,8.98-8.98c4.952,0,8.98,4.029,8.98,8.98v64.656h29.843v-32.787c0-4.952,4.029-8.98,8.98-8.98  c4.952,0,8.98,4.029,8.98,8.98V384.669z"/>















</svg>
