<?xml version="1.0" encoding="iso-8859-1"?>
<!-- Generator: Adobe Illustrator 21.0.0, SVG Export Plug-In . SVG Version: 6.00 Build 0)  -->
<svg xmlns="http://www.w3.org/2000/svg" xmlns:xlink="http://www.w3.org/1999/xlink" version="1.1" id="Capa_1" x="0px" y="0px" viewBox="0 0 512 512" style="enable-background:new 0 0 512 512;" xml:space="preserve" width="512" height="512">
<g>
	<path d="M512,157.058H408.712V88.202h-68.856V19.346H172.144v68.855h-68.856v68.856H0v197.884h103.288v68.856h68.856v68.855   h167.711v-68.855h68.856v-68.856H512V157.058z M378.712,118.202v38.856h-38.856v-38.856H378.712z M202.144,118.202H241v38.856   h-38.856V118.202z M271,118.202h38.855v38.856H271V118.202z M271,49.346h38.855v38.855H271V49.346z M202.144,49.346H241v38.855   h-38.856V49.346z M133.288,118.202h38.856v38.856h-38.856V118.202z M133.288,393.798v-38.856h38.856v38.856H133.288z    M309.855,393.798H271v-38.856h38.855V393.798z M241,393.798h-38.856v-38.856H241V393.798z M241,462.654h-38.856v-38.855H241   V462.654z M309.855,462.654H271v-38.855h38.855V462.654z M378.712,393.798h-38.856v-38.856h38.856V393.798z M482,324.942H30   V187.058h452V324.942z"/>
	<path d="M122.302,252.844c4.895-2.447,7.418-6.577,7.418-11.548c0-8.106-6.883-13.996-21.643-13.996H79.475v53.534h30.132   c14.76,0,22.637-5.43,22.637-14.76C132.244,259.727,128.573,255.138,122.302,252.844z M97.217,239.92h8.413   c4.053,0,5.889,1.376,5.889,3.977s-1.836,3.977-5.889,3.977h-8.413V239.92z M108.078,268.216h-10.86v-8.413h10.86   c3.977,0,5.965,1.453,5.965,4.206C114.042,266.763,112.054,268.216,108.078,268.216z"/>
	<rect x="144.333" y="227.301" width="18.049" height="53.534"/>
	<polygon points="172.785,241.296 188.462,241.296 188.462,280.835 206.511,280.835 206.511,241.296 222.189,241.296    222.189,227.301 172.785,227.301  "/>
	<polygon points="281.847,227.301 264.869,255.827 247.431,227.301 232.595,227.301 232.595,280.835 249.038,280.835    249.038,257.28 260.662,276.017 268.616,276.017 280.24,256.439 280.394,280.835 296.836,280.835 296.684,227.301  "/>
	<path d="M328.887,227.301l-23.402,53.534h18.354l3.595-9.33h20.343l3.595,9.33h18.66l-23.402-53.534H328.887z M332.404,258.504   l5.2-13.46l5.201,13.46H332.404z"/>
	<path d="M378.68,227.301v53.534h18.049V267.68h7.724c14.913,0,24.396-7.8,24.396-20.189c0-12.39-9.483-20.19-24.396-20.19H378.68z    M410.646,247.491c0,3.9-2.37,6.271-7.342,6.271h-6.576v-12.542h6.576C408.276,241.219,410.646,243.591,410.646,247.491z"/>
</g>















</svg>
