<?xml version="1.0" encoding="iso-8859-1"?>
<!-- Generator: Adobe Illustrator 21.0.0, SVG Export Plug-In . SVG Version: 6.00 Build 0)  -->
<svg xmlns="http://www.w3.org/2000/svg" xmlns:xlink="http://www.w3.org/1999/xlink" version="1.1" id="Capa_1" x="0px" y="0px" viewBox="0 0 512 512" style="enable-background:new 0 0 512 512;" xml:space="preserve" width="512" height="512">
<g>
	<path d="M463.076,422.448c7.163-9.648,11.408-21.585,11.408-34.497c0-31.98-26.018-57.998-57.998-57.998   c-0.248,0-0.492,0.016-0.739,0.019c-8.587-11.628-20.056-20.651-33.092-26.299c7.165-9.649,11.412-21.589,11.412-34.504   c0-31.98-26.018-57.998-57.998-57.998s-57.998,26.018-57.998,57.998c0,12.944,4.265,24.91,11.46,34.57   c-12.972,5.652-24.385,14.65-32.939,26.233c-0.249-0.003-0.495-0.019-0.745-0.019c-0.185,0-0.366,0.012-0.55,0.014   c-8.587-11.625-20.055-20.647-33.089-26.295c7.165-9.649,11.412-21.589,11.412-34.503c0-31.98-26.018-57.998-57.998-57.998   s-57.998,26.018-57.998,57.998c0,12.944,4.265,24.91,11.46,34.571c-12.973,5.653-24.387,14.651-32.94,26.235   c-0.279-0.004-0.554-0.021-0.834-0.021c-31.98,0-57.998,26.018-57.998,57.998c0,12.942,4.264,24.906,11.457,34.566   C20.097,435.046,0,463.666,0,496.906V512h512v-15.094C512,463.607,491.832,434.941,463.076,422.448z M444.295,387.951   c0,15.334-12.475,27.809-27.809,27.809c-15.334,0-27.809-12.475-27.809-27.809c0-15.334,12.475-27.809,27.809-27.809   C431.82,360.142,444.295,372.617,444.295,387.951z M336.07,241.361c15.334,0,27.809,12.475,27.809,27.809   c0,15.334-12.475,27.809-27.809,27.809c-15.334,0-27.809-12.475-27.809-27.809C308.261,253.836,320.736,241.361,336.07,241.361z    M228.04,387.951c0-15.334,12.475-27.809,27.809-27.809s27.809,12.475,27.809,27.809c0,15.334-12.475,27.809-27.809,27.809   S228.04,403.285,228.04,387.951z M175.624,241.361c15.334,0,27.809,12.475,27.809,27.809c0,15.334-12.475,27.809-27.809,27.809   s-27.809-12.475-27.809-27.809C147.815,253.836,160.29,241.361,175.624,241.361z M95.312,360.142   c15.334,0,27.809,12.475,27.809,27.809c0,15.334-12.475,27.809-27.809,27.809s-27.809-12.475-27.809-27.809   C67.503,372.617,79.979,360.142,95.312,360.142z M32.471,481.811c6.449-20.751,25.83-35.862,48.675-35.862h28.536   c22.845,0,42.226,15.111,48.675,35.862H32.471z M141.902,422.448c7.163-9.648,11.408-21.585,11.408-34.497   c0-19.966-10.142-37.606-25.544-48.044c9.179-8.078,21.113-12.74,33.691-12.74h28.536c12.52,0,24.403,4.622,33.565,12.632   c-15.493,10.423-25.707,28.116-25.707,48.152c0,12.942,4.264,24.906,11.457,34.566c-13.525,5.909-25.129,15.4-33.627,27.269   C167.152,437.873,155.492,428.353,141.902,422.448z M193.007,481.811c6.449-20.751,25.83-35.862,48.675-35.862h28.535   c22.845,0,42.226,15.111,48.675,35.862H193.007z M302.439,422.448c7.163-9.648,11.408-21.585,11.408-34.497   c0-19.988-10.163-37.646-25.594-48.079c9.173-8.056,21.091-12.705,33.65-12.705h28.536c12.557,0,24.474,4.648,33.647,12.703   c-15.432,10.433-25.597,28.092-25.597,48.082c0,12.942,4.264,24.906,11.457,34.566c-13.551,5.921-25.175,15.438-33.677,27.34   C327.734,437.911,316.056,428.364,302.439,422.448z M353.645,481.811c6.449-20.751,25.83-35.862,48.675-35.862h28.535   c22.845,0,42.226,15.111,48.674,35.862H353.645z"/>
	<path d="M204.427,160.847h43.448v60.534l74.715-60.534h18.984c44.346,0,80.423-36.078,80.423-80.423S385.92,0,341.575,0H204.427   c-44.346,0-80.423,36.078-80.423,80.423S160.082,160.847,204.427,160.847z M204.427,30h137.147   c27.804,0,50.423,22.62,50.423,50.423s-22.62,50.423-50.423,50.423h-29.612l-34.087,27.618v-27.618h-73.448   c-27.804,0-50.423-22.62-50.423-50.423S176.624,30,204.427,30z"/>
	<path d="M219.246,97.438c7.846,0,15.363-6.899,15-15c-0.364-8.127-6.591-15-15-15c-7.846,0-15.363,6.899-15,15   C204.61,90.565,210.837,97.438,219.246,97.438z"/>
	<path d="M324.357,97.438c7.846,0,15.363-6.899,15-15c-0.364-8.127-6.591-15-15-15c-7.846,0-15.363,6.899-15,15   C309.721,90.565,315.948,97.438,324.357,97.438z"/>
	<path d="M273.009,97.438c7.846,0,15.363-6.899,15-15c-0.364-8.127-6.591-15-15-15c-7.846,0-15.363,6.899-15,15   C258.373,90.565,264.599,97.438,273.009,97.438z"/>
</g>















</svg>
