<?xml version="1.0" encoding="iso-8859-1"?>
<!-- Generator: Adobe Illustrator 21.0.0, SVG Export Plug-In . SVG Version: 6.00 Build 0)  -->
<svg xmlns="http://www.w3.org/2000/svg" xmlns:xlink="http://www.w3.org/1999/xlink" version="1.1" id="Capa_1" x="0px" y="0px" viewBox="0 0 512 512" style="enable-background:new 0 0 512 512;" xml:space="preserve" width="512" height="512">
<g>
	<path d="M245.08,141.805c0-67.569-54.971-122.54-122.54-122.54C54.971,19.265,0,74.236,0,141.805s54.971,122.54,122.541,122.54   C190.109,264.345,245.08,209.373,245.08,141.805z M122.541,234.286c-50.995,0-92.482-41.487-92.482-92.482   s41.487-92.482,92.482-92.482c50.994,0,92.481,41.487,92.481,92.482S173.535,234.286,122.541,234.286z"/>
	<path d="M389.459,19.265c-67.568,0-122.54,54.971-122.54,122.54s54.971,122.54,122.54,122.54   c67.569,0,122.541-54.971,122.541-122.54S457.029,19.265,389.459,19.265z M389.459,234.286c-50.994,0-92.481-41.487-92.481-92.482   s41.487-92.482,92.481-92.482c50.995,0,92.482,41.487,92.482,92.482S440.454,234.286,389.459,234.286z"/>
	<path d="M255.498,247.655c-67.569,0-122.541,54.971-122.541,122.54s54.971,122.54,122.541,122.54s122.541-54.971,122.541-122.54   S323.067,247.655,255.498,247.655z M255.498,462.677c-50.995,0-92.482-41.487-92.482-92.482s41.487-92.482,92.482-92.482   s92.482,41.487,92.482,92.482S306.493,462.677,255.498,462.677z"/>
	<path d="M122.541,177.545c-16.831,0-31.543-11.93-34.982-28.367l-29.421,6.157c6.337,30.287,33.423,52.269,64.403,52.269   c31.661,0,58.862-22.56,64.675-53.643l-29.546-5.526C154.515,165.302,139.741,177.545,122.541,177.545z"/>
	<path d="M88.674,127.034c7.862,0,15.393-6.913,15.029-15.029c-0.365-8.143-6.604-15.029-15.029-15.029   c-7.861,0-15.393,6.913-15.029,15.029C74.01,120.148,80.248,127.034,88.674,127.034z"/>
	<path d="M153.999,127.034c7.862,0,15.393-6.913,15.029-15.029c-0.365-8.143-6.604-15.029-15.029-15.029   c-7.862,0-15.393,6.913-15.029,15.029C139.335,120.148,145.574,127.034,153.999,127.034z"/>
	<path d="M256.105,363.838c-31.661,0-58.862,22.56-64.675,53.643l29.546,5.526c3.156-16.868,17.928-29.111,35.129-29.111   c16.831,0,31.543,11.93,34.982,28.367l29.421-6.157C314.171,385.82,287.085,363.838,256.105,363.838z"/>
	<path d="M222.029,351.698c7.862,0,15.393-6.913,15.029-15.029c-0.365-8.143-6.604-15.029-15.029-15.029   c-7.862,0-15.393,6.913-15.029,15.029C207.364,344.812,213.603,351.698,222.029,351.698z"/>
	<path d="M287.354,351.698c7.861,0,15.393-6.913,15.029-15.029c-0.365-8.143-6.604-15.029-15.029-15.029   c-7.862,0-15.393,6.913-15.029,15.029C272.689,344.812,278.928,351.698,287.354,351.698z"/>
	<path d="M355.489,125.067c7.862,0,15.393-6.913,15.029-15.029c-0.365-8.143-6.603-15.029-15.029-15.029   c-7.862,0-15.393,6.913-15.029,15.029C340.824,118.18,347.063,125.067,355.489,125.067z"/>
	<path d="M420.814,125.067c7.861,0,15.393-6.913,15.029-15.029c-0.365-8.143-6.604-15.029-15.029-15.029   c-7.862,0-15.393,6.913-15.029,15.029C406.149,118.18,412.388,125.067,420.814,125.067z"/>
	<rect x="334.583" y="152.084" width="108.352" height="30.059"/>
</g>















</svg>
