<?xml version="1.0" encoding="iso-8859-1"?>
<!-- Generator: Adobe Illustrator 21.0.0, SVG Export Plug-In . SVG Version: 6.00 Build 0)  -->
<svg xmlns="http://www.w3.org/2000/svg" xmlns:xlink="http://www.w3.org/1999/xlink" version="1.1" id="Capa_1" x="0px" y="0px" viewBox="0 0 512 512" style="enable-background:new 0 0 512 512;" xml:space="preserve" width="512" height="512">
<g>
	<rect x="52.345" y="91.74" width="30.002" height="30"/>
	<rect x="102.348" y="91.74" width="30.002" height="30"/>
	<rect x="152.351" y="91.74" width="30.002" height="30"/>
	<path d="M0,37.089v437.822h512V37.089H0z M482,67.089v80.007H30V67.089H482z M30,177.096h131.616   c-41.959,29.687-69.406,78.59-69.406,133.785c0,55.35,27.603,104.368,69.761,134.031H30V177.096z M255.995,177.096   c73.769,0,133.785,60.016,133.785,133.785s-60.016,133.785-133.785,133.785S122.21,384.649,122.21,310.88   S182.226,177.096,255.995,177.096z M350.018,444.911c42.158-29.663,69.761-78.681,69.761-134.031   c0-55.195-27.447-104.097-69.406-133.785H482v267.815H350.018z"/>
	<rect x="237.981" y="91.74" width="216.019" height="30"/>
	<path d="M255.766,399.369l71.349-71.35c19.056-19.056,19.056-50.062,0-69.117c-9.231-9.231-21.504-14.315-34.559-14.315   s-25.328,5.084-34.559,14.315l-1.977,1.977l-1.978-1.977c-19.056-19.055-50.061-19.056-69.118,0   c-19.055,19.056-19.055,50.062-0.038,69.079L255.766,399.369z M206.14,280.115c3.564-3.564,8.304-5.528,13.345-5.528   s9.781,1.963,13.346,5.528l23.19,23.191l23.19-23.191c3.565-3.564,8.305-5.528,13.346-5.528s9.781,1.963,13.346,5.528   c7.358,7.359,7.358,19.333,0,26.691l-50.06,50.06l-49.703-50.06C198.78,299.447,198.781,287.474,206.14,280.115z"/>
</g>















</svg>
