<?xml version="1.0" encoding="iso-8859-1"?>
<!-- Generator: Adobe Illustrator 21.0.0, SVG Export Plug-In . SVG Version: 6.00 Build 0)  -->
<svg xmlns="http://www.w3.org/2000/svg" xmlns:xlink="http://www.w3.org/1999/xlink" version="1.1" id="Capa_1" x="0px" y="0px" viewBox="0 0 512 512" style="enable-background:new 0 0 512 512;" xml:space="preserve" width="512" height="512">
<g>
	<path d="M84.458,377.845c7.916,0,15.499-6.961,15.133-15.133c-0.367-8.199-6.649-15.133-15.133-15.133   c-7.916,0-15.499,6.961-15.133,15.133C69.692,370.911,75.974,377.845,84.458,377.845z"/>
	<path d="M499.491,247.856C507.248,239.467,512,228.26,512,215.961c0-25.932-21.097-47.029-47.029-47.029h-97.926   c1.9-21.276-0.9-42.748-8.297-62.971c-10.573-28.903-38.354-48.322-69.13-48.322h-15.133v15.133   c0,32.028-13.551,62.799-37.179,84.423l-35.597,32.578h-32.792v-20.278H0v270.891h168.917v-20.278h45.592l12.843,8.829   c24.197,16.633,52.506,25.425,81.867,25.425h155.752c25.932,0,47.029-21.097,47.029-47.029c0-12.3-4.752-23.506-12.509-31.895   c7.757-8.389,12.509-19.596,12.509-31.895c0-12.3-4.752-23.506-12.509-31.895c7.757-8.389,12.509-19.596,12.509-31.895   C512,267.452,507.248,256.245,499.491,247.856z M138.65,410.119H30.267V199.761H138.65V410.119z M464.971,424.095H309.219   c-23.212,0-45.592-6.95-64.722-20.1l-20.589-14.153h-54.991V220.04h44.551l44.272-40.517   c25.542-23.375,41.771-55.204,45.943-89.253c12.116,4.185,22.088,13.645,26.64,26.09c7.478,20.444,9.025,42.502,4.475,63.788   l-4.074,19.052h134.247c9.243,0,16.762,7.519,16.762,16.762c0,9.243-7.519,16.762-16.762,16.762h-40.858v30.267h40.858   c9.243,0,16.762,7.519,16.762,16.762s-7.519,16.762-16.762,16.762h-40.858v30.267h40.858c9.243,0,16.762,7.519,16.762,16.762   s-7.519,16.762-16.762,16.762h-40.858v30.267h40.858c9.243,0,16.762,7.519,16.762,16.762S474.214,424.095,464.971,424.095z"/>
</g>















</svg>
