<?xml version="1.0" encoding="iso-8859-1"?>
<!-- Generator: Adobe Illustrator 21.0.0, SVG Export Plug-In . SVG Version: 6.00 Build 0)  -->
<svg xmlns="http://www.w3.org/2000/svg" xmlns:xlink="http://www.w3.org/1999/xlink" version="1.1" id="Capa_1" x="0px" y="0px" viewBox="0 0 512 512" style="enable-background:new 0 0 512 512;" xml:space="preserve" width="512" height="512">
<g>
	<rect x="296.235" width="30.059" height="67.01"/>
	<rect x="296.235" y="329.766" width="30.059" height="67.009"/>
	<rect x="442.643" y="183.358" width="67.01" height="30.059"/>
	<rect x="112.876" y="183.358" width="67.01" height="30.059"/>
	<rect x="389.34" y="68.844" transform="matrix(0.7071 -0.7071 0.7071 0.7071 65.4005 325.6374)" width="72.879" height="30.059"/>
	<rect x="410.75" y="276.463" transform="matrix(0.7071 -0.7071 0.7071 0.7071 -96.5475 392.7184)" width="30.059" height="72.88"/>
	<rect x="181.72" y="47.434" transform="matrix(0.7071 -0.7071 0.7071 0.7071 -1.6807 163.6889)" width="30.059" height="72.879"/>
	<path d="M311.265,112.126c-47.565,0-86.262,38.697-86.262,86.262c0,13.092,3.014,25.947,8.647,37.592L11.187,313.266l61.953,57.922   L2.348,447.831L71.688,512l70.816-76.669l64.815,59.097l71.195-216.207c10.302,4.234,21.373,6.429,32.75,6.429   c47.565,0,86.262-38.697,86.262-86.262S358.829,112.126,311.265,112.126z M193.283,440.95l-52.595-47.954l-70.666,76.505   l-25.216-23.336l70.689-76.531l-47.402-44.317L252.45,261.27L193.283,440.95z M311.265,254.59c-8.147,0-16.051-1.724-23.309-5.04   l12.061-36.627l-37.689,13.094c-4.724-8.378-7.265-17.904-7.265-27.629c0-30.99,25.212-56.202,56.203-56.202   s56.202,25.212,56.202,56.202S342.255,254.59,311.265,254.59z"/>
</g>















</svg>
