<?xml version="1.0" encoding="iso-8859-1"?>
<!-- Generator: Adobe Illustrator 21.0.0, SVG Export Plug-In . SVG Version: 6.00 Build 0)  -->
<svg xmlns="http://www.w3.org/2000/svg" xmlns:xlink="http://www.w3.org/1999/xlink" version="1.1" id="Capa_1" x="0px" y="0px" viewBox="0 0 512 512" style="enable-background:new 0 0 512 512;" xml:space="preserve" width="512" height="512">
<g>
	<path d="M400.846,265.74c0-6.325-0.426-12.637-1.242-18.886c18.169-5.996,34.532-15.997,48.035-28.961   c0.992,4.03,1.872,8.09,2.611,12.174l29.564-5.354c-2.211-12.212-5.424-24.266-9.561-35.916   c10.413-18.382,16.367-39.606,16.367-62.198c0-69.807-56.792-126.6-126.6-126.6c-34.89,0-66.529,14.187-89.45,37.096   c-4.219-0.338-8.908-0.513-14.05-0.513c-4.114,0-8.408,0.111-12.764,0.33l1.508,30.008c1.075-0.054,2.143-0.099,3.206-0.138   c-8.963,16.647-14.303,35.517-14.97,55.552c-69.94,10.754-122.862,71.215-122.862,143.405c0,25.446,6.714,50.502,19.418,72.458   c10.863,18.776,25.88,34.965,43.736,47.231v62.214c-4.938-2.195-9.794-4.578-14.531-7.163l-14.393,26.374   c9.308,5.08,19.001,9.521,28.924,13.265V512h163.898V385.429c17.856-12.266,32.873-28.455,43.736-47.231   C394.131,316.241,400.846,291.186,400.846,265.74z M360.021,30.046c53.24,0,96.554,43.314,96.554,96.554   c0,53.24-43.314,96.554-96.554,96.554s-96.554-43.314-96.554-96.554C263.467,73.36,306.781,30.046,360.021,30.046z    M203.839,391.153h103.806v30.356H203.839V391.153z M203.839,481.955v-30.4h103.806v30.4H203.839z M355.421,323.151   c-8.764,15.146-20.938,28.162-35.417,37.957H191.48c-14.479-9.795-26.653-22.811-35.417-37.957   c-10.061-17.389-15.379-37.241-15.379-57.411c0-56.541,40.938-104.001,95.375-113.374   c11.935,57.494,62.981,100.832,123.961,100.832c3.383,0,6.734-0.137,10.05-0.399c0.481,4.286,0.729,8.609,0.729,12.94   C370.8,285.91,365.482,305.762,355.421,323.151z"/>
	<polygon points="344.998,170.573 375.044,170.573 375.044,141.623 403.995,141.623 403.995,111.577 375.044,111.577    375.044,82.626 344.998,82.626 344.998,111.577 316.047,111.577 316.047,141.623 344.998,141.623  "/>
	<path d="M55.425,265.429c0-7.922,0.48-15.911,1.427-23.747l-29.829-3.605c-1.091,9.027-1.644,18.23-1.644,27.352   c0,5.118,0.175,10.312,0.518,15.439l29.979-2.013C55.577,274.395,55.425,269.878,55.425,265.429z"/>
	<path d="M81.594,167.069l-26.085-14.91c-7.088,12.4-13.037,25.516-17.682,38.982l28.403,9.798   C70.265,189.24,75.434,177.845,81.594,167.069z"/>
	<path d="M98.975,389.963l-23.452,18.783c8.907,11.119,18.915,21.469,29.748,30.761l19.561-22.805   C115.415,408.625,106.715,399.628,98.975,389.963z"/>
	<path d="M62.999,320.099l-28.913,8.174c3.886,13.743,9.089,27.177,15.468,39.928l26.871-13.441   C70.889,343.691,66.371,332.03,62.999,320.099z"/>
	<path d="M203.841,73.212l-7.601-29.069c-13.821,3.614-27.354,8.55-40.221,14.67l12.904,27.133   C180.092,80.635,191.839,76.35,203.841,73.212z"/>
	<path d="M133.282,107.793l-18.313-23.819c-11.294,8.683-21.839,18.485-31.344,29.135l22.417,20.006   C114.304,123.858,123.469,115.338,133.282,107.793z"/>
	<path d="M448.65,308.668l29.318,6.571c3.128-13.953,4.946-28.248,5.405-42.486l-30.03-0.968   C452.944,284.142,451.365,296.552,448.65,308.668z"/>
	<path d="M416.746,380.643l24.584,17.272c8.193-11.662,15.35-24.138,21.273-37.083l-27.322-12.5   C430.122,359.61,423.885,370.481,416.746,380.643z"/>
	<path d="M359.863,435.029l16.112,25.36c12.007-7.628,23.382-16.44,33.813-26.19l-20.518-21.948   C380.196,420.733,370.302,428.397,359.863,435.029z"/>
</g>















</svg>
