<?xml version="1.0" encoding="iso-8859-1"?>
<!-- Generator: Adobe Illustrator 21.0.0, SVG Export Plug-In . SVG Version: 6.00 Build 0)  -->
<svg xmlns="http://www.w3.org/2000/svg" xmlns:xlink="http://www.w3.org/1999/xlink" version="1.1" id="Capa_1" x="0px" y="0px" viewBox="0 0 512 512" style="enable-background:new 0 0 512 512;" xml:space="preserve" width="512" height="512">
<path d="M511.951,76.064c0-23.464-19.09-42.553-42.554-42.553c-23.464,0-42.554,19.089-42.554,42.553v8.641h30.114v-8.641  c0-6.859,5.581-12.439,12.44-12.439c6.859,0,12.44,5.58,12.44,12.439v214.354c-20.413-21.825-49.448-35.491-81.618-35.491  c-42.499,0-79.531,23.842-98.433,58.851c-11.429-12.288-27.721-19.995-45.786-19.995c-18.065,0-34.356,7.707-45.785,19.995  c-18.901-35.009-55.934-58.851-98.433-58.851c-32.17,0-61.204,13.665-81.617,35.49V76.064c0-6.859,5.581-12.439,12.44-12.439  s12.439,5.58,12.439,12.439v8.641h30.114v-8.641c0-23.464-19.089-42.553-42.553-42.553S0.05,52.6,0.05,76.064  c0,0-0.05,289.563-0.05,290.645C0,428.345,50.145,478.49,111.781,478.49c61.637,0,111.782-50.145,111.782-111.782v-10.374  c0-17.886,14.551-32.437,32.436-32.437c17.886,0,32.437,14.551,32.437,32.437v10.374c0,61.637,50.145,111.782,111.781,111.782  S512,428.345,512,366.708C512,365.635,511.951,76.064,511.951,76.064z M111.781,448.376c-45.031,0-81.667-36.636-81.667-81.668  s36.636-81.668,81.667-81.668c45.032,0,81.668,36.636,81.668,81.668S156.813,448.376,111.781,448.376z M400.219,448.376  c-45.031,0-81.667-36.636-81.667-81.668s36.636-81.668,81.667-81.668s81.667,36.636,81.667,81.668S445.25,448.376,400.219,448.376z"/>















</svg>
