<?xml version="1.0" encoding="iso-8859-1"?>
<!-- Generator: Adobe Illustrator 21.0.0, SVG Export Plug-In . SVG Version: 6.00 Build 0)  -->
<svg xmlns="http://www.w3.org/2000/svg" xmlns:xlink="http://www.w3.org/1999/xlink" version="1.1" id="Capa_1" x="0px" y="0px" viewBox="0 0 512 512" style="enable-background:new 0 0 512 512;" xml:space="preserve" width="512" height="512">
<g>
	<rect x="52.345" y="80.739" width="30.002" height="30"/>
	<rect x="102.348" y="80.739" width="30.002" height="30"/>
	<rect x="152.351" y="80.739" width="30.002" height="30"/>
	<path d="M0,20.001v471.998h512V20.001H0z M482,50.001v86.094H30V50.001H482z M30,461.999V166.095h452v295.904H30z"/>
	<rect x="237.981" y="80.739" width="216.02" height="30"/>
	<path d="M171.77,198.22H62.173v109.997H171.77V198.22z M141.77,278.217H92.173V228.22h49.597V278.217z"/>
	<path d="M201.202,428.027h109.596V318.03H201.202V428.027z M231.202,348.03h49.596v49.997h-49.596V348.03z"/>
	<path d="M449.827,198.22H340.23v109.997h109.597V198.22z M419.827,278.217H370.23V228.22h49.597V278.217z"/>
	<rect x="61" y="338.221" width="111" height="30"/>
	<rect x="61" y="398.225" width="111" height="30"/>
	<rect x="339.528" y="338.221" width="111" height="30"/>
	<rect x="339.528" y="398.225" width="111" height="30"/>
	<rect x="201" y="198.22" width="111" height="30"/>
	<rect x="201" y="258.224" width="111" height="30"/>
</g>















</svg>
