<?xml version="1.0" encoding="iso-8859-1"?>
<!-- Generator: Adobe Illustrator 21.0.0, SVG Export Plug-In . SVG Version: 6.00 Build 0)  -->
<svg xmlns="http://www.w3.org/2000/svg" xmlns:xlink="http://www.w3.org/1999/xlink" version="1.1" id="Capa_1" x="0px" y="0px" viewBox="0 0 512 512" style="enable-background:new 0 0 512 512;" xml:space="preserve" width="512" height="512">
<path d="M482.913,399.5V84.439h-90.799V26.528H261.598v57.944h-49.042l-32.57-65.245l-32.955,65.212H29.783V399.5H0v15.059  c0,43.127,35.087,78.215,78.215,78.215h355.571c43.127,0,78.215-35.087,78.215-78.215V399.5H482.913z M452.795,114.556V399.5  h-60.681V114.556H452.795z M361.996,56.646v27.826h-35.14v30.118h35.14v30.122h-35.14v30.118h35.14v30.122h-35.14v30.118h35.14  v30.122h-35.14v30.118h35.14v30.122h-35.14v30.118h35.14V399.5h-70.28V56.646H361.996z M261.598,114.59V399.5h-22.226V138.192  l-11.782-23.602H261.598z M150.004,158.412h14.567V399.5h-14.567V158.412z M194.688,158.412h14.567V399.5h-14.567V158.412z   M200.77,128.295h-42.157l21.208-41.966L200.77,128.295z M59.901,114.556h71.91l-11.925,23.596V399.5H59.901V114.556z   M433.785,462.655H78.215c-21.264,0-39.348-13.871-45.683-33.038h446.937C473.133,448.785,455.049,462.655,433.785,462.655z"/>















</svg>
