<?xml version="1.0" encoding="iso-8859-1"?>
<!-- Generator: Adobe Illustrator 21.0.0, SVG Export Plug-In . SVG Version: 6.00 Build 0)  -->
<svg xmlns="http://www.w3.org/2000/svg" xmlns:xlink="http://www.w3.org/1999/xlink" version="1.1" id="Capa_1" x="0px" y="0px" viewBox="0 0 512 512" style="enable-background:new 0 0 512 512;" xml:space="preserve" width="512" height="512">
<g>
	<path d="M354.414,262.235c-3.688-3.197-7.397-6.213-11.122-9.065l16.717-22.339l-24.02-17.975l-17.829,23.825   c-15.798-8.657-31.651-14.169-47.161-16.349v-25.998h-30v25.984c-16.786,2.32-32.549,8.316-46.817,16.111l-18.605-24.627   l-23.937,18.084l17.378,23.003c-29.969,22.87-49.128,49.33-50.515,51.274l-6.217,8.712l6.217,8.712   c0.615,0.862,15.333,21.342,39.081,41.927c31.555,27.352,64.624,42.153,95.821,42.933c0.862,0.024,1.726,0.038,2.594,0.038   c0.954,0,1.904-0.019,2.852-0.047c74.659-1.993,132.2-81.427,134.642-84.85l6.217-8.712l-6.217-8.712   C392.88,303.3,378.162,282.819,354.414,262.235z M192.39,312.874c0-35.075,28.535-63.61,63.61-63.61   c35.075,0,63.61,28.535,63.61,63.61s-28.535,63.61-63.61,63.61C220.925,376.484,192.39,347.949,192.39,312.874z M149.822,312.855   c3.45-4.124,8.12-9.408,13.808-15.173c-0.811,4.946-1.239,10.02-1.239,15.192c0,5.156,0.426,10.214,1.232,15.146   C157.952,322.265,153.28,316.98,149.822,312.855z M348.371,328.065c0.811-4.946,1.239-10.019,1.239-15.191   c0-5.156-0.426-10.213-1.231-15.144c5.669,5.754,10.339,11.038,13.799,15.163C358.728,317.016,354.058,322.301,348.371,328.065z"/>
	<path d="M271.843,297.03c-8.736-8.735-22.95-8.734-31.686,0.001c-8.736,8.736-8.736,22.951-0.001,31.686   c4.232,4.232,9.859,6.563,15.844,6.563s11.611-2.331,15.845-6.563c8.734-8.736,8.734-22.95,0-31.686L271.843,297.03z"/>
	<rect x="52.345" y="91.739" width="30.002" height="30"/>
	<rect x="102.348" y="91.739" width="30.002" height="30"/>
	<rect x="152.351" y="91.739" width="30.002" height="30"/>
	<path d="M0,37.089v437.822h512V37.089H0z M482,67.089v80.007H30V67.089H482z M30,444.911V177.096h452v267.815H30z"/>
	<rect x="237.981" y="91.739" width="216.02" height="30"/>
</g>















</svg>
