<?xml version="1.0" encoding="iso-8859-1"?>
<!-- Generator: Adobe Illustrator 21.0.0, SVG Export Plug-In . SVG Version: 6.00 Build 0)  -->
<svg xmlns="http://www.w3.org/2000/svg" xmlns:xlink="http://www.w3.org/1999/xlink" version="1.1" id="Capa_1" x="0px" y="0px" viewBox="0 0 512 512" style="enable-background:new 0 0 512 512;" xml:space="preserve" width="512" height="512">
<g>
	<rect x="289.184" y="370.716" width="32.841" height="30"/>
	<path d="M512,448.432V126.668H187.106V0H0v290.202h96.357v158.229h134.363V482h-32.682v30h212.147v-30H377.71v-33.568H512z    M157.106,30v170.198H30V30H157.106z M30,230.198h127.106v30.004H30V230.198z M187.106,290.202V156.668h294.762v167.704H126.357   v-34.17H187.106z M126.357,354.372h355.511v64.06H126.357V354.372z M347.71,482h-86.989v-33.568h86.989V482z"/>
	<path d="M82.469,144.891h22.466l3.969,10.304h20.608l-25.845-59.12H84.073l-25.844,59.12h20.27L82.469,144.891z M93.701,115.668   l5.743,14.865H87.958L93.701,115.668z"/>
	<path d="M333.25,252.179c0-7.011-4.054-12.078-10.979-14.611c5.405-2.703,8.192-7.264,8.192-12.753   c0-8.953-7.602-15.456-23.901-15.456h-31.587v59.12h33.275C324.551,268.479,333.25,262.482,333.25,252.179z M294.569,223.294h9.29   c4.477,0,6.504,1.521,6.504,4.392c0,2.872-2.027,4.392-6.504,4.392h-9.29V223.294z M294.569,254.543v-9.29h11.993   c4.392,0,6.588,1.604,6.588,4.645c0,3.041-2.196,4.646-6.588,4.646H294.569z"/>
</g>















</svg>
