<?xml version="1.0" encoding="iso-8859-1"?>
<!-- Generator: Adobe Illustrator 21.0.0, SVG Export Plug-In . SVG Version: 6.00 Build 0)  -->
<svg xmlns="http://www.w3.org/2000/svg" xmlns:xlink="http://www.w3.org/1999/xlink" version="1.1" id="Capa_1" x="0px" y="0px" viewBox="0 0 512 512" style="enable-background:new 0 0 512 512;" xml:space="preserve" width="512" height="512">
<path d="M388.249,264.856c-32.165,0-61.495,12.357-83.504,32.568l-33.497-28.527v-22.673  c61.063-7.45,108.517-59.611,108.517-122.654C379.765,55.434,324.33,0,256.193,0S132.621,55.434,132.621,123.571  c0,63.065,47.488,115.24,108.583,122.661v22.583l-33.682,28.858c-22.038-20.357-51.474-32.816-83.77-32.816  c-68.138,0-123.572,55.434-123.572,123.571C0.179,456.566,55.614,512,123.751,512s123.572-55.434,123.572-123.572  c0-25.044-7.496-48.367-20.352-67.856l29.219-25.033l29.039,24.729c-12.979,19.551-20.552,42.987-20.552,68.161  c0,68.138,55.434,123.572,123.572,123.572s123.572-55.434,123.572-123.572C511.821,320.29,456.386,264.856,388.249,264.856z   M256.193,123.796c-13.674,0-24.799-11.125-24.799-24.798c0-13.674,11.125-24.799,24.799-24.799  c13.674,0,24.798,11.125,24.798,24.799C280.991,112.672,269.867,123.796,256.193,123.796z M243.043,153.84h26.485  c23.016,0,42.743,18.703,45.846,42.098c-16.133,13.218-36.746,21.161-59.182,21.161c-22.357,0-42.904-7.889-59.012-21.025  C200.225,172.617,219.983,153.84,243.043,153.84z M256.193,30.044c51.571,0,93.528,41.956,93.528,93.527  c0,16.309-4.2,31.654-11.57,45.018c-3.636-7.69-8.475-14.842-14.393-21.058c-6.76-7.1-14.538-12.699-22.96-16.684  c6.435-8.986,10.238-19.978,10.238-31.849c0-30.241-24.602-54.843-54.842-54.843S201.35,68.757,201.35,98.998  c0,11.899,3.822,22.917,10.285,31.915c-8.369,3.981-16.097,9.558-22.82,16.619c-5.964,6.264-10.835,13.477-14.48,21.236  c-7.431-13.405-11.669-28.814-11.669-45.196C162.665,72,204.621,30.044,256.193,30.044z M64.743,460.934  c3.056-23.462,22.807-42.237,45.859-42.237h26.485c23.007,0,42.727,18.702,45.843,42.1c-16.133,13.217-36.745,21.159-59.179,21.159  C101.396,481.956,80.85,474.068,64.743,460.934z M123.751,388.653c-13.674,0-24.799-11.125-24.799-24.798  c0-13.674,11.125-24.799,24.799-24.799s24.798,11.125,24.798,24.799C148.549,377.528,137.425,388.653,123.751,388.653z   M205.702,433.458c-3.635-7.685-8.47-14.834-14.382-21.048c-6.763-7.108-14.543-12.713-22.968-16.703  c6.437-8.987,10.241-19.981,10.241-31.853c0-30.241-24.602-54.843-54.842-54.843s-54.843,24.603-54.843,54.843  c0,11.901,3.823,22.92,10.288,31.919c-8.371,3.985-16.102,9.568-22.827,16.637c-5.958,6.263-10.825,13.473-14.469,21.227  c-7.435-13.408-11.677-28.822-11.677-45.209c0-51.571,41.956-93.527,93.528-93.527s93.528,41.956,93.528,93.527  C217.279,404.742,213.076,420.092,205.702,433.458z M388.249,294.9c51.571,0,93.528,41.956,93.528,93.527  c0,16.297-4.194,31.631-11.552,44.987c-3.64-7.701-8.488-14.86-14.42-21.078c-6.755-7.082-14.526-12.667-22.944-16.643  c6.43-8.984,10.231-19.972,10.231-31.838c0-30.241-24.603-54.843-54.843-54.843s-54.843,24.603-54.843,54.843  c0,11.895,3.819,22.908,10.278,31.904c-8.363,3.973-16.086,9.535-22.803,16.577c-5.977,6.267-10.857,13.488-14.507,21.258  c-7.42-13.398-11.652-28.796-11.652-45.166C294.721,336.857,336.677,294.9,388.249,294.9z M363.45,363.854  c0-13.674,11.125-24.799,24.799-24.799s24.799,11.125,24.799,24.799c0,13.673-11.125,24.798-24.799,24.798  S363.45,377.528,363.45,363.854z M329.228,460.925c3.016-23.449,22.789-42.228,45.872-42.228h26.485  c23.038,0,42.779,18.706,45.854,42.091c-16.134,13.222-36.751,21.168-59.19,21.168C365.888,481.956,345.338,474.064,329.228,460.925  z"/>















</svg>
