<?xml version="1.0" encoding="iso-8859-1"?>
<!-- Generator: Adobe Illustrator 21.0.0, SVG Export Plug-In . SVG Version: 6.00 Build 0)  -->
<svg xmlns="http://www.w3.org/2000/svg" xmlns:xlink="http://www.w3.org/1999/xlink" version="1.1" id="Capa_1" x="0px" y="0px" viewBox="0 0 512 512" style="enable-background:new 0 0 512 512;" xml:space="preserve" width="512" height="512">
<g>
	<path d="M325.263,73.589V342.73c0,38.192-31.071,69.264-69.263,69.264s-69.263-31.071-69.263-69.264V73.589H86.73V342.73   C86.73,436.066,162.664,512,256,512s169.27-75.934,169.27-169.27V73.589H325.263z M395.268,103.591v28.998h-40.003v-28.998H395.268   z M156.735,103.591v28.998h-40.003v-28.998H156.735z M256,481.998c-76.792,0-139.268-62.476-139.268-139.268V162.591h40.003V342.73   c0,54.735,44.53,99.266,99.265,99.266s99.265-44.53,99.265-99.266V162.591h40.003V342.73   C395.268,419.522,332.792,481.998,256,481.998z"/>
	<polygon points="240.999,209.608 302.354,77.283 271.001,77.283 271.001,0 209.646,132.325 240.999,132.325  "/>
</g>















</svg>
