<?xml version="1.0" encoding="iso-8859-1"?>
<!-- Generator: Adobe Illustrator 21.0.0, SVG Export Plug-In . SVG Version: 6.00 Build 0)  -->
<svg xmlns="http://www.w3.org/2000/svg" xmlns:xlink="http://www.w3.org/1999/xlink" version="1.1" id="Capa_1" x="0px" y="0px" viewBox="0 0 512 512" style="enable-background:new 0 0 512 512;" xml:space="preserve" width="512" height="512">
<g>
	<path d="M446.089,482.128c-10.954,0-15.708-3.565-22.904-8.962c-8.873-6.654-19.916-14.936-40.827-14.936   c-20.911,0-31.953,8.282-40.826,14.936c-7.196,5.397-11.949,8.962-22.903,8.962c-10.952,0-15.706-3.565-22.901-8.962   c-8.872-6.654-19.915-14.936-40.826-14.936c-20.91,0-31.951,8.282-40.824,14.936c-7.195,5.397-11.948,8.962-22.9,8.962   s-15.706-3.565-22.901-8.962c-8.872-6.654-19.915-14.936-40.825-14.936s-31.953,8.282-40.825,14.936   c-7.195,5.397-11.949,8.962-22.901,8.962s-15.706-3.565-22.901-8.962C31.951,466.512,20.91,458.23,0,458.23v29.872   c10.952,0,15.705,3.565,22.9,8.962C31.772,503.718,42.814,512,63.725,512c20.91,0,31.952-8.282,40.825-14.936   c7.196-5.397,11.949-8.962,22.902-8.962s15.706,3.565,22.902,8.962c8.872,6.654,19.915,14.936,40.825,14.936   s31.951-8.282,40.824-14.936c7.195-5.397,11.948-8.962,22.9-8.962c10.953,0,15.706,3.565,22.902,8.962   c8.872,6.654,19.915,14.936,40.825,14.936c20.911,0,31.953-8.282,40.826-14.936c7.196-5.397,11.949-8.962,22.903-8.962   s15.708,3.565,22.904,8.962c8.873,6.654,19.916,14.936,40.827,14.936s31.954-8.282,40.827-14.936   c7.196-5.397,11.95-8.962,22.904-8.962V458.23c-20.912,0-31.954,8.282-40.827,14.936   C461.798,478.563,457.043,482.128,446.089,482.128z"/>
	<path d="M446.089,422.38c-10.954,0-15.708-3.565-22.904-8.962c-8.873-6.654-19.916-14.936-40.827-14.936   c-20.911,0-31.953,8.282-40.826,14.936c-1.774,1.33-3.399,2.548-5.005,3.629v-249.54h23.266v-29.872h-37.448V84.872h13.523V54.999   h-15.136C314.034,24.822,287.075,0,254.91,0s-59.124,24.822-65.82,54.999h-15.136v29.872h13.523v52.764h-37.448v29.872h23.266   v249.549c-1.611-1.084-3.239-2.305-5.018-3.638c-8.872-6.654-19.915-14.936-40.825-14.936s-31.953,8.282-40.825,14.936   c-7.195,5.397-11.949,8.962-22.901,8.962s-15.706-3.565-22.901-8.962C31.951,406.764,20.91,398.482,0,398.482v29.872   c10.952,0,15.705,3.565,22.9,8.962c8.872,6.654,19.914,14.936,40.825,14.936c20.91,0,31.952-8.282,40.825-14.936   c7.196-5.397,11.949-8.962,22.902-8.962s15.706,3.565,22.902,8.962c8.872,6.654,19.915,14.936,40.825,14.936   s31.951-8.282,40.824-14.936c7.195-5.397,11.948-8.962,22.9-8.962c10.953,0,15.706,3.565,22.902,8.962   c8.872,6.654,19.915,14.936,40.825,14.936c20.911,0,31.953-8.282,40.826-14.936c7.196-5.397,11.949-8.962,22.903-8.962   s15.708,3.565,22.904,8.962c8.873,6.654,19.916,14.936,40.827,14.936s31.954-8.282,40.827-14.936   c7.196-5.397,11.95-8.962,22.904-8.962v-29.872c-20.912,0-31.954,8.282-40.827,14.936   C461.798,418.815,457.043,422.38,446.089,422.38z M291.559,167.508l-88.393,60.8v-60.8H291.559z M203.167,264.564l103.487-71.183   v35.132l-103.487,71.183V264.564z M203.167,335.952l103.487-71.183v35.132l-103.487,71.183V335.952z M254.91,32.052   c15.531,0,28.89,9.475,34.601,22.947h-69.203C226.021,41.527,239.38,32.052,254.91,32.052z M217.349,84.872h75.122v52.764h-22.841   v-26.545h-29.872v26.545h-22.409V84.872z M254.902,398.482c-20.91,0-31.951,8.282-40.824,14.936   c-3.894,2.921-7.078,5.298-10.911,6.871V407.34l103.487-71.183v84.138c-3.84-1.573-7.028-3.952-10.927-6.877   C286.855,406.764,275.812,398.482,254.902,398.482z"/>
	<path d="M0,26.558v158.188l169.108-83.363L0,26.558z M29.872,72.442l68.711,30.401l-68.711,33.872V72.442z"/>
	<path d="M342.892,108.848L512,183.673V25.485L342.892,108.848z M482.128,137.789l-68.711-30.401l68.711-33.872V137.789z"/>
</g>















</svg>
