<?xml version="1.0" encoding="iso-8859-1"?>
<!-- Generator: Adobe Illustrator 21.0.0, SVG Export Plug-In . SVG Version: 6.00 Build 0)  -->
<svg xmlns="http://www.w3.org/2000/svg" xmlns:xlink="http://www.w3.org/1999/xlink" version="1.1" id="Capa_1" x="0px" y="0px" viewBox="0 0 512 512" style="enable-background:new 0 0 512 512;" xml:space="preserve" width="512" height="512">
<g>
	<polygon points="122.452,420.189 205.12,365.675 122.452,311.161  "/>
	<path d="M92.266,41.133v188.574C38.262,251.257,0,304.08,0,365.675C0,446.359,65.648,512,146.342,512   s146.342-65.641,146.342-146.325c0-5.2-0.278-10.335-0.809-15.396c17.622-7.858,29.74-25.617,29.74-45.677V131.818l160.242-15.704   v80.418h-43.419c-28.895,0-52.403,23.506-52.403,52.398s23.507,52.397,52.403,52.397h23.59c27.555,0,49.972-22.416,49.972-49.967V0   L92.266,41.133z M481.857,251.36c0,10.933-8.895,19.827-19.829,19.827h-23.59c-12.274,0-22.259-9.984-22.259-22.257   c0-12.273,9.985-22.258,22.259-22.258h43.419V251.36z M291.471,51.896v52.592L122.41,121.055V68.463L291.471,51.896z    M146.342,481.86c-64.072,0-116.198-52.12-116.198-116.185S82.269,249.49,146.342,249.49S262.54,301.61,262.54,365.675   S210.414,481.86,146.342,481.86z M264.838,279.914h26.633v24.687c0,5.676-2.449,10.877-6.379,14.531   C280.328,304.972,273.449,291.777,264.838,279.914z M291.471,249.774h-43.419c-3.731,0-7.403,0.398-10.993,1.165   c-24.955-19.769-56.481-31.59-90.718-31.59c-8.149,0-16.142,0.68-23.932,1.967V151.34l169.061-16.568V249.774z M321.615,101.533   V48.942l160.242-15.703V85.83L321.615,101.533z"/>
</g>















</svg>
