<?xml version="1.0" encoding="iso-8859-1"?>
<!-- Generator: Adobe Illustrator 21.0.0, SVG Export Plug-In . SVG Version: 6.00 Build 0)  -->
<svg xmlns="http://www.w3.org/2000/svg" xmlns:xlink="http://www.w3.org/1999/xlink" version="1.1" id="Capa_1" x="0px" y="0px" viewBox="0 0 512 512" style="enable-background:new 0 0 512 512;" xml:space="preserve" width="512" height="512">
<g>
	<path d="M455.266,56.734c-75.645-75.644-198.73-75.644-274.375,0c-72.074,72.074-75.476,187.214-10.207,263.354l-18.979,18.979   l-37.834-37.834l-21.228,21.228l16.333,16.333L0,447.769L64.231,512l108.974-108.975l14.522,14.523l21.229-21.228l-36.024-36.024   l18.979-18.98c36.184,31.017,81.175,46.527,126.166,46.527c49.682,0,99.365-18.911,137.187-56.733   C530.911,255.464,530.911,132.379,455.266,56.734z M42.457,447.769l21.231-21.231l21.774,21.774l-21.232,21.232L42.457,447.769z    M106.691,427.083l-21.774-21.774l45.287-45.287l21.774,21.774L106.691,427.083z M434.038,309.881   c-63.941,63.939-167.978,63.939-231.919,0c-63.94-63.941-63.94-167.979,0-231.919c31.97-31.969,73.965-47.955,115.959-47.955   s83.989,15.985,115.96,47.955C497.977,141.903,497.977,245.94,434.038,309.881z"/>
	<path d="M415.176,96.823c-25.936-25.936-60.42-40.219-97.098-40.219s-71.162,14.284-97.098,40.219   c-25.936,25.936-40.219,60.42-40.219,97.098s14.283,71.163,40.219,97.098c25.936,25.936,60.419,40.219,97.098,40.219   s71.163-14.284,97.098-40.219c25.936-25.936,40.22-60.42,40.22-97.098S441.113,122.759,415.176,96.823z M393.948,269.792   c-41.835,41.836-109.905,41.835-151.74,0s-41.835-109.905,0-151.74c20.266-20.266,47.21-31.426,75.87-31.426   c28.66,0,55.605,11.16,75.87,31.426C435.783,159.886,435.783,227.957,393.948,269.792z"/>
	<path d="M318.695,128.659c-11.369,0-18.839,7.146-18.839,16.404c0,9.257,7.471,16.402,18.839,16.402   c11.369,0,18.84-7.146,18.84-16.889C337.535,135.318,330.064,128.659,318.695,128.659z"/>
	<rect x="303.266" y="171.211" width="30.858" height="88.026"/>
</g>















</svg>
