<?xml version="1.0" encoding="iso-8859-1"?>
<!-- Generator: Adobe Illustrator 21.0.0, SVG Export Plug-In . SVG Version: 6.00 Build 0)  -->
<svg xmlns="http://www.w3.org/2000/svg" xmlns:xlink="http://www.w3.org/1999/xlink" version="1.1" id="Capa_1" x="0px" y="0px" viewBox="0 0 512 512" style="enable-background:new 0 0 512 512;" xml:space="preserve" width="512" height="512">
<g>
	<path d="M512,77.06V46.961H271V0h-30v46.961H0V77.06h30.002v321.037H0v30.099h173.669l-50.98,65.231L146.296,512l65.496-83.804   h88.417L365.704,512l23.607-18.573l-50.98-65.231H512v-30.099h-30.002V77.06H512z M451.998,398.097H60.002V77.06h391.996V398.097z"/>
	<path d="M272.561,204.912c7.846,0,15.363-6.922,15-15.05c-0.364-8.154-6.591-15.05-15-15.05c-7.846,0-15.363,6.922-15,15.05   C257.925,198.017,264.152,204.912,272.561,204.912z"/>
	<path d="M411.589,358.915v-239.98H100.411v239.98H411.589z M130.411,259.806l69.565-38.516l37.774,35.2l-107.339,61.458V259.806z    M171.959,328.816l148.176-84.841l61.453,42.368v42.474H171.959z M381.589,149.034v100.787l-59.975-41.349l-56.559,32.384   l-60.568-56.442l-74.076,41.013v-76.394H381.589z"/>
</g>















</svg>
