<?xml version="1.0" encoding="iso-8859-1"?>
<!-- Generator: Adobe Illustrator 21.0.0, SVG Export Plug-In . SVG Version: 6.00 Build 0)  -->
<svg xmlns="http://www.w3.org/2000/svg" xmlns:xlink="http://www.w3.org/1999/xlink" version="1.1" id="Capa_1" x="0px" y="0px" viewBox="0 0 512 512" style="enable-background:new 0 0 512 512;" xml:space="preserve" width="512" height="512">
<path d="M385.341,255.162c-3.264,0-6.433,0.408-9.465,1.165c-2.821-18.747-19.051-33.168-38.591-33.168  c-5.177,0-10.118,1.021-14.643,2.858c-4.802-7.925-12.351-14.007-21.316-16.934l69.506-69.813  c15.426-15.409,23.921-35.896,23.921-57.688s-8.495-42.279-23.921-57.688C355.408,8.486,334.899,0,313.084,0  s-42.323,8.486-57.748,23.896l-14.161,14.145l-14.161-14.145C211.589,8.486,191.081,0,169.266,0s-42.324,8.486-57.749,23.896  c-31.843,31.809-31.843,83.566-0.029,115.347l90.66,91.059v66.666l-1.449-1.409c-6.428-6.25-14.906-9.745-23.875-9.839  c-0.123-0.002-0.244-0.002-0.368-0.002c-11.086,0-21.571,5.323-28.104,14.287c-6.605,9.065-8.424,20.824-4.862,31.456l13.662,40.791  c7.356,21.962,19.122,41.668,34.97,58.569l30.851,32.9V512h159.911v-46.768l41.486-73.205v-97.877  C424.369,272.651,406.861,255.162,385.341,255.162z M132.73,118.08c-9.759-9.749-15.133-22.71-15.133-36.497  c0-13.786,5.375-26.748,15.134-36.497s22.734-15.118,36.535-15.118s26.776,5.369,36.535,15.118l35.374,35.336l35.374-35.336  c9.759-9.749,22.734-15.118,36.535-15.118s26.776,5.369,36.535,15.118s15.134,22.711,15.134,36.497s-5.375,26.748-15.163,36.525  l-69.388,69.693v-32.293c0-21.497-17.508-38.986-39.027-38.986s-39.027,17.489-39.027,38.986v32.294L132.73,118.08z   M394.369,384.132l-41.486,73.205v24.694h-99.911v-30.154l-38.956-41.545c-12.877-13.733-22.438-29.744-28.415-47.591l-13.662-40.79  c-0.678-2.024,0.127-3.569,0.666-4.309c0.535-0.734,1.742-1.957,3.844-1.957c0.02,0,0.039,0,0.058,0  c1.228,0.013,2.388,0.492,3.269,1.348l22.374,21.751v17.92h30V155.509c0-4.972,4.05-9.018,9.027-9.018s9.027,4.046,9.027,9.018  v177.823h30v-87.188c0-4.972,4.05-9.018,9.028-9.018c4.978,0,9.027,4.046,9.027,9.018v80.931h30v-64.929  c0-4.972,4.05-9.018,9.027-9.018s9.027,4.046,9.027,9.018v64.929h30v-32.925c0-4.973,4.05-9.019,9.028-9.019  c4.978,0,9.027,4.046,9.027,9.019V384.132z"/>















</svg>
