<?xml version="1.0" encoding="iso-8859-1"?>
<!-- Generator: Adobe Illustrator 21.0.0, SVG Export Plug-In . SVG Version: 6.00 Build 0)  -->
<svg xmlns="http://www.w3.org/2000/svg" xmlns:xlink="http://www.w3.org/1999/xlink" version="1.1" id="Capa_1" x="0px" y="0px" viewBox="0 0 512 512" style="enable-background:new 0 0 512 512;" xml:space="preserve" width="512" height="512">
<g>
	<path d="M109.396,0v512h293.207V0H109.396z M372.604,30v32.672H139.396V30H372.604z M372.604,92.672v278.846H139.396V92.672   H372.604z M139.396,482v-80.482h233.207V482H139.396z"/>
	<path d="M256,425c-7.846,0-15.363,6.899-15,15c0.364,8.127,6.591,15,15,15c7.846,0,15.363-6.899,15-15   C270.636,431.873,264.409,425,256,425z"/>
	<rect x="171" y="125" width="30.002" height="30"/>
	<rect x="231.004" y="125" width="110.007" height="30"/>
	<rect x="171" y="185.168" width="30.002" height="30"/>
	<rect x="231.004" y="185.168" width="110.007" height="30"/>
	<rect x="171" y="245.172" width="30.002" height="30"/>
	<rect x="231.004" y="245.172" width="110.007" height="30"/>
	<rect x="171" y="305.176" width="30.002" height="30"/>
	<rect x="231.004" y="305.176" width="110.007" height="30"/>
</g>















</svg>
