<?xml version="1.0" encoding="iso-8859-1"?>
<!-- Generator: Adobe Illustrator 21.0.0, SVG Export Plug-In . SVG Version: 6.00 Build 0)  -->
<svg xmlns="http://www.w3.org/2000/svg" xmlns:xlink="http://www.w3.org/1999/xlink" version="1.1" id="Capa_1" x="0px" y="0px" viewBox="0 0 512.01 512.01" style="enable-background:new 0 0 512.01 512.01;" xml:space="preserve" width="512" height="512">
<path d="M451.006,482.01c-3.478-36.615-19.558-71.584-45.353-97.977v-23.782h-15.029V239.396  c0-63.945-24.901-124.063-70.118-169.278C275.291,24.901,215.173,0,151.229,0h-15v58.787l-104.14,104.14l12.514,41.535  c4.835,16.051,16.68,28.437,32.498,33.983c15.817,5.548,32.807,3.271,46.606-6.246L155.9,210h11.919  c-5.007,21.718-7.548,43.928-7.548,66.306v83.945h-14.909v23.659c-25.865,26.406-41.989,61.428-45.473,98.099H70.095v30H479.92v-30  H451.006z M299.293,91.33c39.55,39.549,61.331,92.133,61.331,148.065v120.855h-20V239.395c0-99.384-76.948-181.13-174.396-188.801  V30.525C216.513,34.061,263.299,55.337,299.293,91.33z M182.473,160.823L176.336,180h-29.778l-39.882,27.502  c-5.818,4.014-12.979,4.971-19.648,2.634c-6.668-2.339-11.662-7.561-13.7-14.327l-7.338-24.356l91.338-91.337  c85.073,3.219,153.297,73.433,153.297,159.279v120.856H190.271v-83.945c0-27.484,4.247-54.691,12.623-80.867l8.151-25.473  L182.473,160.823z M167.881,403.787l13.586-13.536h187.96l13.586,13.536c21.044,20.966,34.402,48.859,37.83,78.223H130.052  C133.479,452.646,146.838,424.753,167.881,403.787z"/>















</svg>
