<?xml version="1.0" encoding="iso-8859-1"?>
<!-- Generator: Adobe Illustrator 21.0.0, SVG Export Plug-In . SVG Version: 6.00 Build 0)  -->
<svg xmlns="http://www.w3.org/2000/svg" xmlns:xlink="http://www.w3.org/1999/xlink" version="1.1" id="Capa_1" x="0px" y="0px" viewBox="0 0 512 512" style="enable-background:new 0 0 512 512;" xml:space="preserve" width="512" height="512">
<g>
	<path d="M413.396,151.288c-5.89-19.521-19.365-62.5-26.933-73.222C359.919,40.468,298.597,0,226.684,0   c-52.487,0-102.17,21.14-139.897,59.524c-37.328,37.979-58.333,87.993-59.146,140.829c-0.505,32.794,6.563,64.212,21.01,93.381   c12.642,25.524,30.821,48.444,52.833,66.687V512h219.284v-84.838h35.253c43.456,0,78.81-35.354,78.81-78.81v-42.111l49.554-20.8   L413.396,151.288z M404.831,286.298v62.055c0,26.914-21.896,48.81-48.81,48.81h-65.253V482H131.483V345.81l-5.864-4.504   c-21.04-16.156-38.359-37.21-50.084-60.886c-12.307-24.848-18.328-51.631-17.897-79.605c0.694-45.094,18.645-87.804,50.546-120.261   C140.223,47.953,182.308,30,226.684,30c27.809,0,56.188,7.242,82.069,20.944c22.163,11.732,41.554,27.925,53.171,44.38   c3.775,5.714,14.963,38.71,23.165,66.004l0.422,1.403l57.014,107.745L404.831,286.298z"/>
	<path d="M226.683,59.955l-79.035,152.783h49.035v84.118l79.035-152.783h-49.035V59.955z M221.939,182.738h-24.996l4.482-8.665   h24.996L221.939,182.738z"/>
</g>















</svg>
