<?xml version="1.0" encoding="iso-8859-1"?>
<!-- Generator: Adobe Illustrator 21.0.0, SVG Export Plug-In . SVG Version: 6.00 Build 0)  -->
<svg xmlns="http://www.w3.org/2000/svg" xmlns:xlink="http://www.w3.org/1999/xlink" version="1.1" id="Capa_1" x="0px" y="0px" viewBox="0 0 512 512" style="enable-background:new 0 0 512 512;" xml:space="preserve" width="512" height="512">
<path d="M437.019,74.981C388.667,26.628,324.38,0,256,0c-68.38,0-132.667,26.628-181.02,74.981C26.629,123.333,0,187.621,0,256.001  s26.629,132.667,74.981,181.019C123.333,485.372,187.62,512,256,512c68.38,0,132.667-26.628,181.019-74.981  C485.372,388.668,512,324.381,512,256.001S485.372,123.333,437.019,74.981z M96.342,96.342C138.988,53.695,195.69,30.209,256,30.209  c60.31,0,117.012,23.487,159.658,66.133s66.133,99.348,66.133,159.659c0,37.481-9.077,73.565-26.181,105.751  c-11.995-56.607-62.189-99.268-122.232-99.632c22.776-20.934,37.074-50.953,37.074-84.253c0-63.11-51.343-114.453-114.452-114.453  c-63.109,0-114.453,51.343-114.453,114.453c0,33.3,14.299,63.319,37.074,84.253c-60.043,0.364-110.237,43.026-122.232,99.633  c-17.104-32.186-26.181-68.271-26.181-105.753C30.209,195.689,53.696,138.988,96.342,96.342z M320.817,390.769l-49.712,62.742  v-56.513l46.574-104.679h14.926c7.381,0,14.569,0.842,21.473,2.434l-69.981,96.016H320.817z M157.923,294.753  c6.904-1.592,14.092-2.434,21.473-2.434h14.927l46.573,104.679v56.513l-49.711-62.741h36.72L157.923,294.753z M256,356.632  l-28.614-64.313h57.228L256,356.632z M256,262.11c-46.452,0-84.244-37.791-84.244-84.243c0-46.453,37.791-84.244,84.244-84.244  c46.452,0,84.243,37.791,84.243,84.244C340.244,224.319,302.452,262.11,256,262.11z M83.869,402.13v-14.284  c0-34.267,18.14-64.372,45.317-81.232l39.319,53.946h-39.798l94.15,118.828c-47.732-6.979-91.785-28.999-126.516-63.729  C91.978,411.295,87.827,406.777,83.869,402.13z M289.143,479.388l94.15-118.828h-39.798l39.319-53.946  c27.178,16.86,45.318,46.965,45.318,81.232v14.283c-3.958,4.647-8.11,9.166-12.474,13.53  C380.928,450.389,336.875,472.409,289.143,479.388z"/>















</svg>
