<?xml version="1.0" encoding="iso-8859-1"?>
<!-- Generator: Adobe Illustrator 21.0.0, SVG Export Plug-In . SVG Version: 6.00 Build 0)  -->
<svg xmlns="http://www.w3.org/2000/svg" xmlns:xlink="http://www.w3.org/1999/xlink" version="1.1" id="Capa_1" x="0px" y="0px" viewBox="0 0 512 512" style="enable-background:new 0 0 512 512;" xml:space="preserve" width="512" height="512">
<g>
	<path d="M187.497,366.332c-7.322,0-15.688-2.377-21.964-6.085l-7.226,16.354c6.655,4.088,17.876,6.847,28.999,6.847   c20.633,0,30.997-10.27,30.997-22.44c0-24.531-36.797-17.876-36.797-25.862c0-2.282,2.092-4.184,8.653-4.184   c5.8,0,11.98,1.617,18.541,4.945l6.751-16.259c-6.941-3.899-16.164-5.8-25.103-5.8c-20.633,0-30.996,10.078-30.996,22.439   c0,24.816,36.797,18.065,36.797,26.433C196.15,365.001,193.868,366.332,187.497,366.332z"/>
	<path d="M254.718,366.332c-7.322,0-15.688-2.377-21.964-6.085l-7.226,16.354c6.655,4.088,17.876,6.847,28.999,6.847   c20.633,0,30.997-10.27,30.997-22.44c0-24.531-36.797-17.876-36.797-25.862c0-2.282,2.092-4.184,8.653-4.184   c5.8,0,11.98,1.617,18.541,4.945l6.751-16.259c-6.941-3.899-16.164-5.8-25.103-5.8c-20.633,0-30.996,10.078-30.996,22.439   c0,24.816,36.797,18.065,36.797,26.433C263.371,365.001,261.088,366.332,254.718,366.332z"/>
	<polygon points="349.417,364.526 319.371,364.526 319.371,315.367 296.932,315.367 296.932,381.925 349.417,381.925  "/>
	<path d="M338.012,220.402V82.012C338.012,36.79,301.221,0,256,0s-82.012,36.79-82.012,82.012v138.39H87.47V512H424.53V220.402   H338.012z M204.014,82.012c0-28.665,23.321-51.986,51.986-51.986s51.986,23.321,51.986,51.986v138.39H204.014V82.012z    M394.505,250.428v176.804H117.495V250.428H394.505z M117.495,481.974v-24.717h277.009v24.717H117.495z"/>
</g>















</svg>
