<?xml version="1.0" encoding="iso-8859-1"?>
<!-- Generator: Adobe Illustrator 21.0.0, SVG Export Plug-In . SVG Version: 6.00 Build 0)  -->
<svg xmlns="http://www.w3.org/2000/svg" xmlns:xlink="http://www.w3.org/1999/xlink" version="1.1" id="Capa_1" x="0px" y="0px" viewBox="0 0 512 512" style="enable-background:new 0 0 512 512;" xml:space="preserve" width="512" height="512">
<g>
	<g>
		<g>
			<path d="M417.363,431.677H122.519C54.962,431.677,0,376.715,0,309.159c0-66.13,52.664-120.191,118.255-122.445     C120,127.751,168.507,80.323,227.883,80.323c28.807,0,56.041,11.326,76.685,31.894c17.066,17.002,27.804,38.504,31.032,61.688     c38.573,2.487,70.11,31.232,76.883,68.499h3.88c52.349,0,95.25,42.134,95.634,93.922c0.188,25.419-9.566,49.35-27.466,67.384     C466.628,421.745,442.774,431.677,417.363,431.677z M122.519,216.64C71.504,216.64,30,258.144,30,309.159     s41.504,92.519,92.519,92.519h294.844c17.356,0,33.648-6.784,45.876-19.103c12.226-12.316,18.888-28.662,18.759-46.026     c-0.262-35.369-29.706-64.145-65.635-64.145H383.83v-15c0-29.572-24.041-53.636-53.604-53.674l-23.596,0.229v-15.146     c0-20.763-8.251-40.417-23.235-55.344c-14.982-14.926-34.697-23.146-55.512-23.146c-43.934,0-79.677,35.743-79.677,79.678v26.64     H122.519z"/>
		</g>
	</g>
	<g>
		<g>
			<path d="M276.012,344.505c-10.69-12.188-26.067-19.237-42.188-19.342c-0.121-0.001-0.242-0.002-0.363-0.002     c-15.989,0-31.305,6.838-42.072,18.796l-22.295-20.072c16.452-18.273,39.887-28.724,64.367-28.724     c0.187,0,0.37,0.001,0.557,0.002c24.684,0.16,48.21,10.935,64.547,29.561L276.012,344.505z"/>
		</g>
		<g>
			<path d="M316.736,308.827c-20.905-23.834-50.997-37.62-82.56-37.823c-0.237-0.002-0.476-0.003-0.713-0.003     c-31.307,0-61.278,13.37-82.33,36.753l-22.296-20.072C155.574,257.983,193.666,241,233.463,241c0.303,0,0.603,0.001,0.907,0.003     c40.126,0.26,78.368,17.77,104.92,48.04L316.736,308.827z"/>
		</g>
		<g>
			<path d="M234.632,380.756c-0.318-0.363-0.71-0.549-1.165-0.552c-0.434-0.004-0.847,0.179-1.17,0.538l-22.298-20.07     c5.995-6.66,14.536-10.468,23.459-10.468c0.069,0,0.136,0,0.205,0c9,0.06,17.575,3.986,23.527,10.774L234.632,380.756z"/>
		</g>
		<g>
			<path d="M276.012,344.505c-10.69-12.188-26.067-19.237-42.188-19.342c-0.121-0.001-0.242-0.002-0.363-0.002     c-15.989,0-31.305,6.838-42.072,18.796l-22.295-20.072c16.452-18.273,39.887-28.724,64.367-28.724     c0.187,0,0.37,0.001,0.557,0.002c24.684,0.16,48.21,10.935,64.547,29.561L276.012,344.505z"/>
		</g>
	</g>
</g>















</svg>
