<?xml version="1.0" encoding="iso-8859-1"?>
<!-- Generator: Adobe Illustrator 21.0.0, SVG Export Plug-In . SVG Version: 6.00 Build 0)  -->
<svg xmlns="http://www.w3.org/2000/svg" xmlns:xlink="http://www.w3.org/1999/xlink" version="1.1" id="Capa_1" x="0px" y="0px" viewBox="0 0 512 512" style="enable-background:new 0 0 512 512;" xml:space="preserve" width="512" height="512">
<g>
	<g>
		<g>
			<path d="M182.308,264.701v-50.786h31.131v49.863c0,14.114,5.408,19.391,14.115,19.391c8.706,0,14.114-5.276,14.114-19.391     v-49.863h30.604v50.786c0,27.702-16.621,43.663-44.982,43.663C198.929,308.364,182.308,292.403,182.308,264.701z"/>
			<path d="M293.112,213.915h31.131v92.339h-31.131V213.915z"/>
		</g>
	</g>
	<g>
		<g>
			<path d="M255.968,419.784c-90.311,0-163.785-73.474-163.785-163.784c0-90.312,73.474-163.785,163.785-163.785     S419.753,165.688,419.753,256C419.753,346.311,346.279,419.784,255.968,419.784z M255.968,122.215     c-73.769,0-133.785,60.016-133.785,133.785c0,73.769,60.016,133.784,133.785,133.784S389.753,329.769,389.753,256     C389.753,182.23,329.737,122.215,255.968,122.215z"/>
		</g>
		<g>
			<g>
				<g>
					<rect x="241" y="461.577" width="30" height="50.423"/>
				</g>
				<g>
					<rect x="461.577" y="241" width="50.423" height="30"/>
				</g>
				<g>
					<rect y="241" width="50.422" height="30"/>
				</g>
				<g>
					<rect x="241" width="30" height="50.422"/>
				</g>
				<g>
					<rect x="241" y="461.577" width="30" height="50.423"/>
				</g>
				<g>
					<rect x="461.577" y="241" width="50.423" height="30"/>
				</g>
				<g>
					<rect y="241" width="50.422" height="30"/>
				</g>
			</g>
			<g>
				<g>
					
						<rect x="112.037" y="438.892" transform="matrix(0.5145 -0.8575 0.8575 0.5145 -322.5703 338.0376)" width="50.423" height="29.999"/>
				</g>
				<g>
					
						<rect x="438.892" y="349.541" transform="matrix(0.5146 -0.8575 0.8575 0.5146 -100.9943 571.1142)" width="30.001" height="50.423"/>
				</g>
				<g>
					
						<rect x="43.107" y="112.036" transform="matrix(0.5145 -0.8575 0.8575 0.5145 -89.4763 116.4531)" width="30.001" height="50.422"/>
				</g>
				<g>
					
						<rect x="349.541" y="43.108" transform="matrix(0.5145 -0.8575 0.8575 0.5145 132.1053 349.5495)" width="50.423" height="29.999"/>
				</g>
				<g>
					
						<rect x="112.037" y="438.892" transform="matrix(0.5145 -0.8575 0.8575 0.5145 -322.5703 338.0376)" width="50.423" height="29.999"/>
				</g>
				<g>
					
						<rect x="438.892" y="349.541" transform="matrix(0.5146 -0.8575 0.8575 0.5146 -100.9943 571.1142)" width="30.001" height="50.423"/>
				</g>
				<g>
					
						<rect x="43.107" y="112.036" transform="matrix(0.5145 -0.8575 0.8575 0.5145 -89.4763 116.4531)" width="30.001" height="50.422"/>
				</g>
			</g>
			<g>
				<g>
					<rect x="28.91" y="352.841" transform="matrix(0.8747 -0.4846 0.4846 0.8747 -171.4766 72.3047)" width="50.422" height="30"/>
				</g>
				<g>
					
						<rect x="352.841" y="432.667" transform="matrix(0.8747 -0.4846 0.4846 0.8747 -175.8116 235.6141)" width="30.001" height="50.423"/>
				</g>
				<g>
					
						<rect x="129.158" y="28.91" transform="matrix(0.8747 -0.4846 0.4846 0.8747 -8.1693 76.6394)" width="30.001" height="50.423"/>
				</g>
				<g>
					
						<rect x="432.667" y="129.159" transform="matrix(0.8747 -0.4846 0.4846 0.8747 -12.5035 239.9461)" width="50.422" height="30"/>
				</g>
				<g>
					<rect x="28.91" y="352.841" transform="matrix(0.8747 -0.4846 0.4846 0.8747 -171.4766 72.3047)" width="50.422" height="30"/>
				</g>
				<g>
					
						<rect x="352.841" y="432.667" transform="matrix(0.8747 -0.4846 0.4846 0.8747 -175.8116 235.6141)" width="30.001" height="50.423"/>
				</g>
				<g>
					
						<rect x="129.158" y="28.91" transform="matrix(0.8747 -0.4846 0.4846 0.8747 -8.1693 76.6394)" width="30.001" height="50.423"/>
				</g>
			</g>
		</g>
	</g>
</g>















</svg>
