<?xml version="1.0" encoding="iso-8859-1"?>
<!-- Generator: Adobe Illustrator 21.0.0, SVG Export Plug-In . SVG Version: 6.00 Build 0)  -->
<svg xmlns="http://www.w3.org/2000/svg" xmlns:xlink="http://www.w3.org/1999/xlink" version="1.1" id="Capa_1" x="0px" y="0px" viewBox="0 0 512 512" style="enable-background:new 0 0 512 512;" xml:space="preserve" width="512" height="512">
<g>
	<path d="M368.734,248.249v35.101h-28.147v-83.383c0-46.641-37.945-84.586-84.586-84.586s-84.586,37.945-84.586,84.586v83.383   h-28.148v-35.101h-29.943v60.829c0,73.617,56.044,134.386,127.706,141.893v31.086h-54.643V512h139.229v-29.943h-54.643v-31.086   c71.662-7.507,127.705-68.277,127.705-141.893v-60.829H368.734z M201.358,269.025h109.286v39.114   c0,30.131-24.512,54.644-54.643,54.644s-54.643-24.513-54.643-54.644V269.025z M218.248,160.52v32.146h29.943v-46.774   c2.552-0.367,5.158-0.567,7.809-0.567s5.257,0.2,7.809,0.567v46.774h29.943V160.52c10.396,9.954,16.89,23.952,16.89,39.447v39.115   H201.358v-39.115C201.358,184.471,207.851,170.473,218.248,160.52z M256,421.812c-60.75,0-110.422-48.303-112.648-108.519h28.233   c2.675,44.248,39.505,79.433,84.414,79.433s81.74-35.185,84.414-79.433h28.232C366.421,373.509,316.749,421.812,256,421.812z"/>
	<path d="M256,29.943c25.233,0,49.361,10.866,66.197,29.813l22.384-19.89C322.066,14.53,289.78,0,256,0s-66.066,14.53-88.581,39.866   l22.384,19.89C206.64,40.81,230.768,29.943,256,29.943z"/>
	<path d="M200.751,69.452l22.382,19.89c8.368-9.416,20.347-14.816,32.868-14.816c12.52,0,24.5,5.4,32.868,14.816l22.382-19.89   C297.205,53.647,277.067,44.583,256,44.583S214.796,53.647,200.751,69.452z"/>
</g>















</svg>
