<?xml version="1.0" encoding="iso-8859-1"?>
<!-- Generator: Adobe Illustrator 21.0.0, SVG Export Plug-In . SVG Version: 6.00 Build 0)  -->
<svg xmlns="http://www.w3.org/2000/svg" xmlns:xlink="http://www.w3.org/1999/xlink" version="1.1" id="Capa_1" x="0px" y="0px" viewBox="0 0 512 512" style="enable-background:new 0 0 512 512;" xml:space="preserve" width="512" height="512">
<g>
	<path d="M286.544,237.203v-59.107l-229.573,57C23.427,243.424,0,273.379,0,307.941c0,33.79,22.774,63.575,55.383,72.432   l4.667,1.268V512h103.619l-15.003-52.967v-53.321l137.878,37.452v-66.267c32.215-6.912,56.444-35.598,56.444-69.847   C342.988,272.801,318.759,244.115,286.544,237.203z M90.05,257.794l110.489-27.433v158.354L90.05,358.703V257.794z M30,307.941   c0-19.289,12.16-36.181,30.05-42.479v84.956C42.2,344.11,30,327.101,30,307.941z M123.991,482H90.05v-92.21l28.616,7.773V463.2   L123.991,482z M256.544,403.928l-26.005-7.064V222.912l26.005-6.457v19.15v142.889V403.928z M286.544,345.687v-77.273   c15.46,6.023,26.444,21.072,26.444,38.637S302.004,339.663,286.544,345.687z"/>
	<path d="M431.577,0H294.429c-44.346,0-80.423,36.078-80.423,80.423s36.077,80.423,80.423,80.423h43.448v60.534l74.715-60.534   h18.985c44.346,0,80.423-36.078,80.423-80.423S475.923,0,431.577,0z M431.577,130.847h-29.612l-34.088,27.618v-27.618h-73.448   c-27.804,0-50.423-22.62-50.423-50.423S266.625,30,294.429,30h137.148C459.381,30,482,52.62,482,80.423   S459.381,130.847,431.577,130.847z"/>
	<path d="M309.451,67.438c-7.846,0-15.363,6.899-15,15c0.364,8.127,6.591,15,15,15c7.846,0,15.363-6.899,15-15   C324.087,74.311,317.86,67.438,309.451,67.438z"/>
	<path d="M414.562,67.438c-7.846,0-15.363,6.899-15,15c0.364,8.127,6.591,15,15,15c7.846,0,15.363-6.899,15-15   C429.198,74.311,422.971,67.438,414.562,67.438z"/>
	<path d="M363.213,67.438c-7.846,0-15.363,6.899-15,15c0.364,8.127,6.591,15,15,15c7.846,0,15.363-6.899,15-15   C377.85,74.311,371.623,67.438,363.213,67.438z"/>
</g>















</svg>
