<?xml version="1.0" encoding="iso-8859-1"?>
<!-- Generator: Adobe Illustrator 21.0.0, SVG Export Plug-In . SVG Version: 6.00 Build 0)  -->
<svg xmlns="http://www.w3.org/2000/svg" xmlns:xlink="http://www.w3.org/1999/xlink" version="1.1" id="Capa_1" x="0px" y="0px" viewBox="0 0 512 512" style="enable-background:new 0 0 512 512;" xml:space="preserve" width="512" height="512">
<g>
	<path d="M413.396,151.289c-5.889-19.521-19.364-62.501-26.933-73.221C359.92,40.468,298.598,0,226.684,0   c-52.487,0-102.17,21.14-139.896,59.525c-37.328,37.979-58.333,87.993-59.146,140.828c-0.505,32.795,6.563,64.212,21.01,93.381   c12.641,25.524,30.82,48.445,52.832,66.688V512h219.285v-84.838h35.253c43.456,0,78.81-35.354,78.81-78.81v-42.11l49.554-20.801   L413.396,151.289z M404.831,286.299v62.054c0,26.914-21.896,48.81-48.81,48.81h-65.253V482H131.483V345.811l-5.864-4.503   c-21.04-16.157-38.358-37.212-50.085-60.888c-12.306-24.848-18.327-51.631-17.896-79.604   c0.694-45.094,18.646-87.804,50.546-120.262C140.224,47.954,182.308,30,226.684,30c27.809,0,56.188,7.242,82.069,20.944   c22.163,11.733,41.554,27.926,53.171,44.381c3.775,5.714,14.964,38.71,23.165,66.004l0.422,1.403l57.014,107.744L404.831,286.299z"/>
	<path d="M226.18,87.698c-62.385,0-113.139,50.754-113.139,113.139s50.754,113.139,113.139,113.139s113.139-50.754,113.139-113.139   S288.565,87.698,226.18,87.698z M226.18,283.976c-45.843,0-83.139-37.296-83.139-83.139s37.296-83.139,83.139-83.139   s83.139,37.296,83.139,83.139S272.023,283.976,226.18,283.976z"/>
	<path d="M226.233,223.436c-9.393,0-15.842,6.169-15.842,14.44c0,8.132,6.449,14.721,15.842,14.721   c9.394,0,15.982-6.589,15.982-14.721C242.215,229.604,235.626,223.436,226.233,223.436z"/>
	<path d="M224.691,151.233c-20.609,0-34.208,8.272-41.639,20.75l20.89,11.216c3.645-6.31,9.954-10.095,17.524-10.095   c7.15,0,12.338,3.365,12.338,8.973c0,10.515-20.049,15.142-20.049,33.508h24.955c0-12.898,22.993-16.123,22.993-37.994   C261.704,160.487,246.282,151.233,224.691,151.233z"/>
</g>















</svg>
