<?xml version="1.0" encoding="iso-8859-1"?>
<!-- Generator: Adobe Illustrator 21.0.0, SVG Export Plug-In . SVG Version: 6.00 Build 0)  -->
<svg xmlns="http://www.w3.org/2000/svg" xmlns:xlink="http://www.w3.org/1999/xlink" version="1.1" id="Capa_1" x="0px" y="0px" viewBox="0 0 512 512" style="enable-background:new 0 0 512 512;" xml:space="preserve" width="512" height="512">
<g>
	<rect x="242.553" y="356.44" width="26.893" height="30.023"/>
	<path d="M487.044,440.29V85.777h-175.97c-7.052-29.27-22.699-55.989-45.045-76.488L255.792,0l-10.093,9.272   c-22.328,20.512-37.964,47.237-45.012,76.505H24.956V440.29h151.57v41.687H137.75V512h236.5v-30.023h-38.545V440.29H487.044z    M457.021,304.161H260.52l6.871-34.764h68.076l-4.422-34.587l42.888,28.776l-3.074-50.327   c-1.636-26.766-15.041-51.122-36.78-66.824l-15.792-11.406l-2.459-19.23h141.194V304.161z M274.253,185.601l-0.13-0.149   c-4.732-5.402-11.568-8.468-18.743-8.341c-7.18,0.1-13.924,3.33-18.502,8.86c-4.956,5.986-6.765,13.97-4.902,21.488l6.331,31.916   h-27.905l15.019-117.46c9.863,2.869,20.145,4.362,30.46,4.362c10.316,0,20.597-1.494,30.461-4.362l15.019,117.46h-28.037   l6.28-31.774C281.531,199.828,279.555,191.653,274.253,185.601z M185.761,195.371l-13.248,9.053   c2.586-10.438,7.976-19.936,15.612-27.538L185.761,195.371z M323.633,176.85c7.574,7.536,12.939,16.936,15.553,27.269   l-13.199-8.856L323.633,176.85z M255.865,41.892c12.371,14.434,21.212,31.598,25.8,50.05c-8.228,2.862-16.86,4.312-25.784,4.312   c-8.924,0-17.557-1.45-25.785-4.312C234.68,73.495,243.509,56.332,255.865,41.892z M195.935,115.8l-2.463,19.262l-15.78,11.398   c-21.739,15.701-35.144,40.057-36.78,66.824l-0.075,1.222l4.576,44.802l35.253-24.091l-4.371,34.182h67.967l6.896,34.764H54.979   V115.8H195.935z M54.979,334.184h402.043v76.083H54.979V334.184z M305.682,481.977h-99.134V440.29h99.134V481.977z"/>
</g>















</svg>
