<?xml version="1.0" encoding="iso-8859-1"?>
<!-- Generator: Adobe Illustrator 21.0.0, SVG Export Plug-In . SVG Version: 6.00 Build 0)  -->
<svg xmlns="http://www.w3.org/2000/svg" xmlns:xlink="http://www.w3.org/1999/xlink" version="1.1" id="Capa_1" x="0px" y="0px" viewBox="0 0 512 512" style="enable-background:new 0 0 512 512;" xml:space="preserve" width="512" height="512">
<path d="M373.64,167.787L512,167.155l-0.068-14.956c-0.186-40.456-16.301-78.63-45.377-107.489  C441.096,19.44,408.541,4.121,373.634,0.722l-0.007-0.655l-13.452-0.059C359.699,0.002,359.222,0,358.745,0h-15.004l0.048,106.178  h-28.175l-0.202-44.146l-14.956,0.068c-39.927,0.183-77.611,15.829-106.312,44.077H64.825v298.475H0v54.998  C0,488.517,23.483,512,52.348,512h273.925c26.119,0,47.368-21.249,47.368-47.368V349.485c12.84-6.996,24.774-15.893,35.442-26.561  c29.002-29.002,44.975-67.331,44.975-107.925v-14.956H373.64V167.787z M373.701,30.822c26.929,3.299,51.997,15.479,71.781,35.116  c19.783,19.636,32.115,44.589,35.552,71.445l-107.334,0.491V30.822z M343.789,136.09l-0.061,63.953h-27.616h-0.068l-0.293-63.953  H343.789z M286.201,337.073c-26.988-3.311-52.072-15.554-71.818-35.3c-19.746-19.746-31.989-44.83-35.3-71.818h107.118V337.073z   M285.642,92.993l0.491,107.05h-107.05c3.301-26.893,15.473-51.907,35.098-71.622C233.806,108.706,258.764,96.417,285.642,92.993z   M52.348,482.088c-12.371,0-22.436-10.065-22.436-22.436v-25.086h248.992v30.066c0,6.162,1.183,12.052,3.332,17.456H52.348z   M343.728,464.632c0,9.625-7.83,17.456-17.456,17.456s-17.456-7.831-17.456-17.456v-59.978H94.737V136.09h75.642  c-14.413,23.641-22.121,50.734-22.121,78.909c0,8.582,0.722,17.061,2.122,25.374H122.78v29.912h35.872  c3.219,8.221,7.165,16.16,11.801,23.746H122.78v29.912h71.496c9.953,9.773,20.977,18.03,32.795,24.655H122.78v29.912h189.788  v-11.036c10.638-0.792,21.066-2.698,31.16-5.643V464.632z M387.931,301.773c-19.746,19.746-44.83,31.989-71.818,35.3V229.955h107.12  C419.923,256.943,407.678,282.026,387.931,301.773z"/>















</svg>
