<?xml version="1.0" encoding="iso-8859-1"?>
<!-- Generator: Adobe Illustrator 21.0.0, SVG Export Plug-In . SVG Version: 6.00 Build 0)  -->
<svg xmlns="http://www.w3.org/2000/svg" xmlns:xlink="http://www.w3.org/1999/xlink" version="1.1" id="Capa_1" x="0px" y="0px" viewBox="0 0 512 512" style="enable-background:new 0 0 512 512;" xml:space="preserve" width="512" height="512">
<g>
	<path d="M250.22,98.787c32.614,0,59.147,26.533,59.147,59.146h29.853c0-49.075-39.926-89-89.001-89s-89,39.925-89,89h29.853   C191.074,125.32,217.607,98.787,250.22,98.787z"/>
	<path d="M393.682,256.15c-3.093,0-6.098,0.374-8.984,1.06V0H79.482v511.567L391.235,512v-46.589l41.284-72.924v-97.5   C432.518,273.572,415.096,256.15,393.682,256.15z M354.844,29.853V225.33c-2.885-0.686-5.891-1.06-8.983-1.06   c-5.152,0-10.068,1.017-14.571,2.847c-6.81-11.251-19.165-18.787-33.248-18.787c-3.093,0-6.098,0.374-8.984,1.06v-52.511   c0-21.414-17.422-38.837-38.837-38.837c-21.415,0-38.837,17.422-38.837,38.837v140.913l-1.443-1.404   c-6.397-6.225-14.834-9.705-23.757-9.799c-11.144-0.119-21.76,5.201-28.334,14.229c-6.574,9.03-8.383,20.744-4.839,31.335   l13.595,40.634c0.952,2.845,1.982,5.651,3.082,8.419h-60.354V29.853H354.844z M109.335,481.714V411.06h76.073   c4.751,7.063,10.089,13.763,15.998,20.071l30.699,32.775v17.808H109.335z M402.665,384.623l-41.283,72.924v24.599h-99.424v-30.039   l-38.765-41.385c-12.815-13.681-22.328-29.631-28.276-47.407l-13.595-40.635c-0.675-2.015,0.125-3.554,0.663-4.292   c0.532-0.731,1.733-1.949,3.824-1.949c0.019,0,0.038,0,0.058,0c1.222,0.013,2.377,0.49,3.253,1.342l22.264,21.667v17.852h29.853   V156.879c0-4.953,4.03-8.983,8.984-8.983c4.953,0,8.983,4.03,8.983,8.983v177.14h29.853v-86.853c0-4.953,4.03-8.983,8.984-8.983   c4.953,0,8.983,4.03,8.983,8.983v80.62h29.853v-64.679c0-4.953,4.03-8.983,8.983-8.983c4.953,0,8.983,4.03,8.983,8.983v64.679   h29.853v-32.799c0-4.954,4.03-8.984,8.984-8.984c4.953,0,8.983,4.03,8.983,8.984V384.623z"/>
</g>















</svg>
