<?xml version="1.0" encoding="iso-8859-1"?>
<!-- Generator: Adobe Illustrator 21.0.0, SVG Export Plug-In . SVG Version: 6.00 Build 0)  -->
<svg xmlns="http://www.w3.org/2000/svg" xmlns:xlink="http://www.w3.org/1999/xlink" version="1.1" id="Capa_1" x="0px" y="0px" viewBox="0 0 512 512" style="enable-background:new 0 0 512 512;" xml:space="preserve" width="512" height="512">
<g>
	<path d="M256,0C150.751,0,65.124,85.627,65.124,190.876c0,43.372,30.514,108.707,90.695,194.19   c43.928,62.398,88.491,113.552,88.936,114.061L256,512l11.245-12.872c0.445-0.509,45.008-51.663,88.936-114.061   c60.181-85.483,90.695-150.818,90.695-194.19C446.876,85.627,361.249,0,256,0z M331.909,367.67   c-29.896,42.484-60.103,79.659-75.909,98.567c-15.806-18.908-46.013-56.083-75.909-98.567   c-55.676-79.119-85.105-140.254-85.105-176.794c0-88.784,72.231-161.015,161.014-161.015s161.014,72.231,161.014,161.015   C417.014,227.416,387.585,288.551,331.909,367.67z"/>
	<path d="M256,62.756c-70.645,0-128.12,57.475-128.12,128.12s57.475,128.12,128.12,128.12s128.12-57.474,128.12-128.12   S326.645,62.756,256,62.756z M292.026,193.8c-1.493,18.568-17.081,33.219-36.026,33.219s-34.533-14.652-36.026-33.219H292.026z    M270.931,288.002v-32.845c29.225-6.787,51.075-33.022,51.075-64.281v-26.938h-19.909v-42.35h-29.862v42.35h-32.471v-42.35h-29.862   v42.35h-19.909v26.938c0,31.259,21.85,57.494,51.075,64.281v32.845c-47.119-7.214-83.327-48.021-83.327-97.126   c0-54.18,44.079-98.259,98.258-98.259s98.258,44.079,98.258,98.259C354.258,239.981,318.05,280.788,270.931,288.002z"/>
</g>















</svg>
